<?xml version="1.0" encoding="utf-8"?>
<!-- Svg Vector Icons : http://www.onlinewebfonts.com/icon -->
<!DOCTYPE svg PUBLIC "-//W3C//DTD SVG 1.1//EN" "http://www.w3.org/Graphics/SVG/1.1/DTD/svg11.dtd">
<svg version="1.1" xmlns="http://www.w3.org/2000/svg" x="0px" y="0px" viewBox="0 0 1000 1000"
     enable-background="new 0 0 1000 1000" xml:space="preserve">
<metadata> Svg Vector Icons : http://www.onlinewebfonts.com/icon </metadata>
<g><path d="M948.6,367.6v162.3l34.1,34.2l-71.2,74.1l-72-72l49.3-44.9V393.2C679.5,479.6,612.4,506.5,566,527.4c-46.4,21-79.9,20.8-125.9,3.5c-46-17.4-265.2-97.4-374-149.6c-72.6-34.8-77.3-56.8,1.2-86.4c102.5-39,271.9-101.4,361.7-135.5c53.2-21.5,81.3-33.3,130.1-8.7c87.1,36,286.2,110.8,385.2,151.7C1030.5,340.1,972.6,352.5,948.6,367.6L948.6,367.6L948.6,367.6z M576.1,591.7c50.6-20.9,118.9-55.5,193.3-87.4v256.2c0,0-96.3,102.5-265.4,102.5c-182.2,0-280.6-102.5-280.6-102.5V521.3c57.4,23.4,121.9,43.6,200,70.3C471.4,608.8,532.5,614.7,576.1,591.7L576.1,591.7L576.1,591.7z"/></g>
</svg>
