<?xml version="1.0" standalone="no"?>
<!DOCTYPE svg PUBLIC "-//W3C//DTD SVG 20010904//EN"
 "http://www.w3.org/TR/2001/REC-SVG-20010904/DTD/svg10.dtd">
<svg version="1.0" xmlns="http://www.w3.org/2000/svg"
 width="64.000000pt" height="64.000000pt" viewBox="0 0 64.000000 64.000000"
 preserveAspectRatio="xMidYMid meet">

<g transform="translate(0.000000,64.000000) scale(0.100000,-0.100000)"
fill="#000000" stroke="none">
<path d="M276 605 c-13 -19 -22 -23 -44 -19 -36 7 -67 -24 -58 -60 5 -19 1
-29 -16 -40 -22 -16 -22 -16 18 -16 33 0 42 5 57 29 36 62 138 62 174 0 15
-24 24 -29 57 -29 40 0 40 0 18 16 -17 11 -21 21 -16 40 9 36 -22 67 -58 60
-22 -4 -31 0 -44 19 -11 17 -26 25 -44 25 -18 0 -33 -8 -44 -25z"/>
<path d="M272 504 c-30 -21 -28 -29 13 -41 35 -11 105 1 105 18 0 14 -44 39
-70 39 -14 0 -36 -7 -48 -16z"/>
<path d="M70 255 l0 -185 101 0 c55 0 109 -5 120 -10 18 -10 19 -6 19 173 0
129 -4 187 -12 195 -8 8 -49 12 -120 12 l-108 0 0 -185z m195 80 l0 -50 -85 0
-85 0 -3 39 c-6 65 -2 67 90 64 l83 -3 0 -50z m-115 -95 c0 -5 -13 -10 -30
-10 -16 0 -30 5 -30 10 0 6 14 10 30 10 17 0 30 -4 30 -10z m120 0 c0 -5 -22
-10 -50 -10 -27 0 -50 5 -50 10 0 6 23 10 50 10 28 0 50 -4 50 -10z m-72 -52
c-5 -14 -70 -23 -95 -14 -28 11 -1 26 48 26 36 0 49 -4 47 -12z m65 -3 c1 -5
-6 -11 -15 -13 -11 -2 -18 3 -18 13 0 17 30 18 33 0z m-93 -50 c0 -16 -64 -22
-74 -6 -9 14 5 21 41 21 23 0 33 -5 33 -15z m93 0 c1 -5 -13 -11 -30 -13 -31
-3 -42 6 -26 22 10 10 53 3 56 -9z"/>
<path d="M120 335 c0 -24 3 -25 60 -25 57 0 60 1 60 25 0 24 -3 25 -60 25 -57
0 -60 -1 -60 -25z"/>
<path d="M342 428 c-8 -8 -12 -66 -12 -195 0 -179 1 -183 19 -173 11 5 65 10
120 10 l101 0 0 185 0 185 -108 0 c-71 0 -112 -4 -120 -12z m55 -64 c-9 -9
-28 6 -21 18 4 6 10 6 17 -1 6 -6 8 -13 4 -17z m143 11 c0 -5 -25 -11 -55 -13
-45 -2 -55 0 -55 13 0 13 10 15 55 13 30 -2 55 -7 55 -13z m-140 -55 c0 -5 -4
-10 -10 -10 -5 0 -10 5 -10 10 0 6 5 10 10 10 6 0 10 -4 10 -10z m150 0 c0 -6
-27 -10 -60 -10 -33 0 -60 4 -60 10 0 6 27 10 60 10 33 0 60 -4 60 -10z m-100
-96 l0 -55 -37 3 c-36 3 -38 5 -41 42 -5 55 2 66 43 66 l35 0 0 -56z m93 31
c1 -5 -13 -11 -30 -13 -31 -3 -42 6 -26 22 10 10 53 3 56 -9z m7 -55 c0 -5
-16 -10 -35 -10 -19 0 -35 5 -35 10 0 6 16 10 35 10 19 0 35 -4 35 -10z m-5
-65 c0 -11 -138 -20 -162 -11 -8 3 -11 11 -8 16 9 14 170 9 170 -5z"/>
<path d="M400 225 c0 -16 6 -25 15 -25 9 0 15 9 15 25 0 16 -6 25 -15 25 -9 0
-15 -9 -15 -25z"/>
<path d="M23 379 c-18 -18 -18 -340 -1 -357 17 -17 271 -17 266 1 -3 8 -40 13
-126 15 l-122 3 -2 175 c-2 140 -5 173 -15 163z"/>
<path d="M600 217 l0 -176 -122 -3 c-86 -2 -123 -7 -126 -15 -5 -18 249 -18
266 -1 8 8 12 62 12 179 0 136 -3 169 -15 179 -13 11 -15 -8 -15 -163z"/>
</g>
</svg>
