<?xml version="1.0" standalone="no"?>
<!DOCTYPE svg PUBLIC "-//W3C//DTD SVG 20010904//EN"
 "http://www.w3.org/TR/2001/REC-SVG-20010904/DTD/svg10.dtd">
<svg version="1.0" xmlns="http://www.w3.org/2000/svg"
 width="64.000000pt" height="64.000000pt" viewBox="0 0 64.000000 64.000000"
 preserveAspectRatio="xMidYMid meet">

<g transform="translate(0.000000,64.000000) scale(0.100000,-0.100000)"
fill="#000000" stroke="none">
<path d="M220 624 c-168 -61 -259 -239 -204 -401 9 -26 21 -54 27 -62 19 -23
25 28 9 74 -19 54 -11 158 16 210 24 47 83 105 132 131 26 14 56 19 120 19 98
0 141 -18 201 -82 61 -64 74 -97 74 -193 0 -96 -13 -129 -74 -193 -46 -49 -96
-75 -163 -85 -37 -5 -53 -12 -53 -22 0 -12 12 -15 52 -13 100 4 204 77 253
178 34 72 34 198 0 270 -31 64 -92 124 -155 154 -65 31 -172 38 -235 15z"/>
<path d="M252 407 c-61 -62 -112 -117 -112 -123 0 -13 43 -54 56 -54 5 0 62
53 127 118 l117 118 -28 27 c-15 15 -32 27 -38 27 -5 0 -60 -51 -122 -113z"/>
<path d="M347 322 c-64 -64 -117 -122 -117 -128 0 -13 43 -54 56 -54 13 0 234
223 234 236 0 6 -13 22 -28 37 l-28 27 -117 -118z"/>
<path d="M100 175 c-7 -41 -10 -78 -6 -82 3 -4 40 0 81 8 l76 14 -69 68 -69
68 -13 -76z"/>
</g>
</svg>
