<?xml version="1.0" standalone="no"?>
<!DOCTYPE svg PUBLIC "-//W3C//DTD SVG 20010904//EN"
 "http://www.w3.org/TR/2001/REC-SVG-20010904/DTD/svg10.dtd">
<svg version="1.0" xmlns="http://www.w3.org/2000/svg"
 width="2024.000000pt" height="2024.000000pt" viewBox="0 0 2024.000000 2024.000000"
 preserveAspectRatio="xMidYMid meet">

<g transform="translate(0.000000,2024.000000) scale(0.100000,-0.100000)"
fill="#000000" stroke="none">
<path d="M9725 20234 c-948 -42 -1865 -205 -2721 -485 -139 -45 -214 -74 -211
-82 2 -7 13 -11 23 -10 10 1 42 -5 69 -13 38 -12 120 -16 345 -20 270 -4 352
-10 480 -34 66 -13 130 -22 170 -25 194 -13 347 -27 405 -40 44 -9 159 -16
310 -20 296 -6 319 -8 338 -23 11 -9 17 -10 22 -2 5 8 11 8 21 -1 16 -13 87
-30 122 -30 12 1 22 -4 22 -9 0 -6 9 -10 20 -10 11 0 20 -4 20 -9 0 -5 7 -12
16 -15 8 -3 12 -2 9 4 -3 6 1 10 9 10 9 0 16 -9 16 -20 0 -11 5 -20 10 -20 6
0 10 5 10 10 0 7 8 6 23 -2 12 -7 25 -11 29 -10 4 1 5 -5 1 -13 -4 -13 -1 -14
21 -6 26 10 43 0 31 -18 -3 -6 4 -15 15 -21 13 -7 20 -7 20 0 0 5 -5 10 -12
10 -6 0 -9 2 -6 5 9 9 66 -16 73 -33 5 -14 4 -14 -13 1 -16 15 -21 15 -31 3
-9 -11 -8 -14 6 -12 12 0 19 -7 21 -22 2 -12 7 -20 11 -17 5 2 28 -14 52 -36
81 -75 147 -129 158 -129 6 0 15 -9 21 -21 17 -30 48 -59 65 -59 8 0 15 4 15
8 0 12 -54 62 -68 62 -7 0 -12 7 -12 16 0 19 10 13 67 -42 29 -27 47 -64 25
-50 -4 2 -14 1 -21 -3 -9 -6 -6 -14 15 -30 28 -22 50 -28 39 -11 -3 6 -1 10 4
10 6 0 11 -7 11 -15 0 -8 -7 -15 -15 -15 -10 0 -5 -16 20 -57 19 -32 35 -61
35 -65 0 -7 6 -15 57 -76 13 -15 23 -30 23 -33 0 -4 8 -6 17 -5 12 1 19 -7 20
-24 1 -14 0 -18 -3 -7 -6 19 -24 24 -24 6 0 -20 35 -56 50 -51 12 4 13 2 3 -9
-17 -17 -16 -29 1 -29 18 0 26 -28 32 -120 3 -41 10 -80 15 -86 12 -14 10
-282 -2 -290 -5 -3 -9 -23 -9 -44 0 -50 -20 -140 -37 -165 -7 -11 -13 -27 -13
-37 0 -22 -49 -132 -61 -136 -5 -2 -9 -9 -9 -15 0 -6 -12 -28 -27 -49 -20 -29
-29 -36 -36 -26 -6 9 -7 7 -3 -6 9 -25 -48 -94 -139 -171 -16 -14 -33 -25 -37
-25 -8 0 -36 -21 -63 -47 -8 -7 -17 -13 -21 -13 -14 0 -114 -54 -114 -62 0 -4
-6 -8 -12 -8 -17 0 -152 -53 -169 -66 -8 -6 -34 -16 -59 -23 -25 -7 -49 -17
-55 -21 -5 -4 -32 -15 -60 -24 -27 -8 -81 -27 -120 -41 -38 -15 -86 -31 -105
-36 -19 -6 -44 -14 -55 -18 -11 -5 -51 -17 -90 -26 -38 -10 -74 -21 -80 -25
-5 -4 -44 -15 -85 -25 -41 -9 -81 -22 -88 -28 -14 -11 -11 -69 7 -150 6 -27
13 -69 16 -95 2 -26 14 -90 26 -142 11 -52 22 -112 22 -132 1 -21 4 -38 8 -38
4 0 12 -20 19 -45 7 -25 16 -48 21 -51 4 -2 6 -11 2 -19 -3 -9 0 -21 6 -29 6
-7 8 -16 4 -19 -3 -4 -1 -12 4 -19 6 -7 13 -24 16 -38 3 -14 13 -45 22 -69 12
-34 16 -82 17 -193 1 -81 -2 -151 -5 -154 -4 -4 -13 -2 -20 4 -11 9 -17 6 -27
-14 -10 -17 -21 -24 -39 -23 -36 3 -71 -11 -71 -27 0 -9 -11 -14 -30 -14 -16
0 -33 -7 -38 -16 -6 -11 -14 -14 -23 -9 -7 5 -26 10 -41 12 -16 1 -46 14 -68
28 -22 14 -44 25 -49 25 -5 0 -11 4 -13 8 -1 4 -32 26 -68 47 -36 22 -75 46
-85 53 -11 7 -28 15 -37 18 -10 4 -18 13 -18 21 0 8 -5 11 -10 8 -6 -3 -13 1
-16 9 -3 9 -11 16 -18 16 -22 0 -196 165 -196 186 0 3 -13 19 -30 37 -16 18
-30 37 -30 43 0 7 -6 14 -14 17 -8 3 -20 17 -28 30 -11 21 -66 103 -135 202
-26 38 -88 138 -89 145 -5 22 -39 90 -46 90 -4 0 -8 6 -8 13 0 13 -48 91 -75
120 -9 10 -21 15 -28 10 -7 -4 -97 -9 -200 -10 -198 -2 -383 -17 -401 -32 -22
-17 -212 -43 -328 -45 -36 0 -64 -4 -61 -9 3 -5 -5 -4 -17 3 -12 6 -32 9 -45
6 -13 -3 -27 -2 -30 4 -4 6 -12 7 -23 1 -9 -5 -25 -5 -40 0 -13 5 -27 7 -32 4
-5 -3 -11 -1 -15 5 -3 5 -20 8 -36 6 -17 -2 -50 2 -73 9 -23 7 -84 18 -136 24
-52 7 -107 16 -122 21 -17 5 -30 5 -33 -1 -4 -5 -15 -5 -28 2 -12 7 -46 13
-77 15 -30 1 -110 5 -176 8 l-121 5 -7 -37 c-3 -20 -6 -51 -6 -69 0 -17 -4
-34 -9 -37 -5 -3 -12 -27 -15 -53 -7 -48 -36 -144 -47 -153 -3 -3 -8 -13 -12
-23 -4 -10 -11 -16 -16 -12 -5 3 -12 -3 -16 -14 -4 -14 -25 -24 -73 -36 -118
-30 -317 -88 -327 -96 -15 -11 -105 -9 -105 2 0 6 -5 7 -11 4 -6 -4 -36 -7
-67 -7 -31 0 -81 -5 -111 -10 -30 -5 -98 -11 -150 -12 -82 -3 -206 -23 -261
-43 -8 -4 -24 -8 -35 -10 -11 -2 -56 -15 -100 -29 -56 -17 -122 -28 -220 -35
-77 -6 -148 -15 -158 -20 -9 -5 -17 -6 -17 -1 0 4 -32 9 -71 10 l-70 2 -15
-35 c-8 -19 -19 -35 -25 -35 -5 0 -7 -4 -4 -10 3 -5 0 -8 -7 -5 -13 5 -38 -36
-38 -61 0 -7 -4 -14 -9 -16 -4 -1 -12 -13 -15 -25 -6 -17 -3 -23 8 -23 9 0 16
-5 16 -10 0 -7 -6 -7 -19 -1 -14 8 -22 7 -32 -7 -7 -9 -9 -14 -5 -10 11 9 38
-11 31 -23 -3 -4 -12 -6 -20 -2 -8 3 -15 0 -15 -6 0 -6 5 -11 10 -11 6 0 10
-5 10 -11 0 -5 -4 -8 -9 -4 -6 3 -15 -4 -22 -16 -10 -19 -9 -21 4 -16 11 4 14
2 10 -9 -3 -8 -11 -13 -19 -10 -7 3 -18 -2 -24 -10 -7 -8 -8 -14 -3 -14 6 0 8
-12 5 -27 -3 -16 -7 -22 -9 -15 -6 15 -23 16 -23 1 0 -6 7 -18 16 -27 12 -12
13 -17 4 -20 -7 -3 -16 2 -21 9 -7 11 -9 11 -9 -1 0 -9 5 -21 12 -28 12 -12
11 -13 -14 -16 -7 -1 -12 -12 -10 -25 1 -16 -2 -22 -12 -18 -10 4 -12 0 -8
-15 4 -18 2 -19 -19 -13 l-24 8 20 -23 20 -23 -24 6 c-21 5 -23 3 -18 -23 4
-18 2 -30 -6 -34 -9 -3 -9 -5 1 -5 6 -1 12 -6 12 -12 0 -5 -4 -8 -9 -4 -17 10
-41 -36 -30 -57 7 -12 6 -18 -2 -18 -6 0 -9 -7 -5 -15 3 -8 1 -15 -3 -15 -5 0
-11 5 -13 12 -2 6 -10 8 -17 4 -9 -6 -8 -11 5 -21 17 -12 16 -15 -13 -39 -18
-15 -33 -39 -37 -60 -4 -18 -15 -41 -26 -51 -11 -10 -20 -24 -20 -32 0 -7 -4
-13 -10 -13 -5 0 -7 -7 -4 -15 5 -11 2 -13 -10 -9 -11 4 -16 0 -16 -14 0 -11
-4 -22 -9 -24 -19 -7 -60 -87 -54 -107 4 -16 2 -20 -9 -16 -11 4 -17 -3 -22
-25 -5 -27 -9 -30 -27 -25 -18 6 -21 4 -16 -9 4 -9 2 -16 -3 -16 -6 0 -10 7
-10 15 0 21 -7 19 -34 -8 -13 -13 -39 -30 -57 -37 -19 -8 -37 -18 -41 -24 -14
-21 -19 4 -24 110 -3 60 -7 116 -11 124 -9 23 -10 180 -1 186 4 3 8 33 9 67 0
57 11 144 39 307 24 145 42 427 28 436 -5 3 -8 13 -8 22 0 25 -46 41 -128 47
-70 4 -332 8 -463 6 l-66 -1 -120 -167 c-740 -1041 -1274 -2201 -1576 -3428
-142 -574 -224 -1092 -274 -1735 -21 -281 -25 -1060 -5 -1335 66 -932 216
-1708 494 -2555 39 -118 73 -218 77 -222 3 -3 42 27 86 68 151 142 165 154
174 154 5 0 13 9 16 20 3 11 10 20 15 20 5 0 39 29 75 65 36 36 67 65 70 65 3
0 43 35 88 79 82 78 120 114 255 239 40 37 100 93 134 125 33 31 62 57 64 57
1 0 22 17 46 39 24 21 59 52 78 68 29 26 32 33 21 46 -14 18 -7 37 15 37 8 0
17 7 20 15 4 10 13 13 25 10 13 -4 19 -1 19 9 0 20 19 31 33 17 16 -16 47 -14
53 3 3 8 12 12 20 9 8 -3 14 -1 14 4 0 5 6 10 14 10 8 0 12 -6 9 -12 -7 -21
42 -26 76 -9 18 9 47 14 66 12 18 -2 31 0 29 4 -6 9 264 3 336 -7 25 -4 49
-10 55 -14 5 -5 28 -14 50 -20 22 -7 50 -17 63 -22 12 -5 32 -13 45 -18 44
-17 202 -96 215 -109 7 -6 35 -26 60 -44 26 -18 52 -37 58 -43 7 -5 29 -23 50
-40 36 -28 183 -164 280 -260 36 -35 88 -83 224 -205 19 -18 55 -48 80 -68 25
-21 61 -51 80 -69 47 -43 79 -60 88 -46 21 33 550 41 667 9 33 -8 96 -20 140
-26 44 -6 89 -14 100 -19 11 -5 47 -14 80 -21 33 -6 76 -15 95 -20 19 -4 70
-16 113 -26 43 -10 80 -21 83 -26 3 -4 13 -8 23 -8 17 0 92 -35 186 -89 28
-15 61 -34 75 -42 14 -8 44 -29 67 -47 22 -17 45 -32 50 -32 4 0 35 -20 68
-45 33 -25 63 -45 67 -45 4 0 34 -20 67 -45 32 -25 64 -45 70 -45 5 0 14 -6
18 -13 12 -19 95 -77 110 -77 7 0 30 -16 51 -35 37 -33 41 -43 44 -115 1 -17
-4 -42 -25 -125 -14 -52 -14 -73 -3 -160 8 -55 12 -105 9 -111 -2 -7 0 -15 5
-18 5 -3 6 -23 2 -46 -4 -23 -3 -43 2 -46 5 -3 6 -13 3 -23 -7 -16 -15 -116
-16 -206 -1 -27 -6 -54 -13 -58 -8 -6 -8 -10 1 -14 9 -3 10 -10 4 -21 -5 -9
-7 -25 -6 -34 4 -21 -11 -24 -18 -4 -4 9 -14 12 -26 9 -15 -4 -21 -1 -21 12 0
10 -6 15 -16 13 -16 -3 -53 -61 -88 -136 -8 -17 -38 -67 -67 -110 -77 -115
-93 -137 -101 -140 -5 -2 -8 -9 -8 -15 0 -7 -10 -24 -22 -37 -24 -27 -50 -62
-98 -133 -15 -23 -40 -55 -54 -70 -14 -15 -26 -33 -26 -39 0 -6 -10 -21 -23
-34 -38 -39 -53 -58 -73 -89 -10 -16 -31 -43 -46 -59 -16 -16 -28 -33 -28 -39
0 -5 -15 -26 -32 -47 -63 -73 -98 -119 -98 -129 0 -6 -6 -11 -13 -11 -7 0 -20
-15 -29 -33 -9 -18 -37 -56 -62 -84 -26 -28 -59 -69 -74 -91 -15 -22 -39 -54
-54 -71 -16 -17 -28 -36 -28 -43 0 -7 -15 -26 -33 -43 -38 -35 -87 -99 -87
-114 0 -6 -4 -11 -9 -11 -10 0 -71 -85 -71 -99 0 -5 -11 -16 -25 -25 -14 -9
-25 -23 -25 -30 0 -8 -5 -16 -11 -18 -5 -2 -11 -11 -12 -20 -4 -22 -27 -48
-44 -48 -8 0 -11 -5 -8 -10 4 -6 -7 -28 -24 -49 -17 -21 -31 -43 -31 -49 0 -6
-3 -12 -7 -14 -12 -5 -73 -86 -73 -96 0 -6 -7 -13 -16 -16 -9 -3 -14 -13 -10
-21 3 -8 -1 -18 -8 -22 -24 -15 -48 -62 -41 -82 3 -10 1 -22 -5 -26 -6 -4 -15
-18 -20 -31 -7 -17 -16 -23 -32 -21 -19 2 -23 -2 -21 -24 1 -19 -5 -30 -21
-37 -12 -5 -30 -25 -39 -43 -9 -19 -17 -28 -17 -21 0 6 -7 12 -15 12 -8 0 -15
5 -15 11 0 26 -29 35 -118 37 -51 2 -101 7 -110 12 -9 5 -78 16 -152 25 -129
15 -175 22 -175 25 0 1 -13 3 -30 5 -125 16 -202 29 -210 35 -5 4 -32 11 -60
15 -54 8 -337 100 -370 120 -11 7 -31 16 -45 20 -14 4 -52 19 -85 34 -90 42
-117 52 -123 47 -8 -8 640 -651 773 -767 742 -648 1461 -1130 2280 -1530 689
-335 1302 -558 2040 -739 497 -122 983 -202 1555 -256 229 -22 1220 -31 1485
-15 1871 118 3665 746 5175 1810 153 107 404 293 438 324 l22 21 -2 505 -3
506 -76 5 c-74 5 -315 -3 -389 -13 -247 -33 -821 -27 -1145 12 -44 5 -111 12
-150 16 -38 4 -81 10 -95 15 -14 5 -32 8 -40 9 -8 0 -55 10 -105 24 -49 13
-94 24 -100 25 -30 5 -116 34 -141 47 -16 8 -35 15 -41 15 -7 0 -13 5 -13 11
0 6 -9 9 -19 6 -12 -3 -22 1 -25 9 -3 8 -12 14 -21 14 -8 0 -15 5 -15 11 0 5
-4 8 -9 5 -4 -3 -23 6 -41 19 -19 14 -38 25 -42 25 -5 0 -14 4 -21 10 -56 45
-74 56 -86 52 -10 -3 -12 1 -8 17 4 18 1 21 -25 21 -16 0 -27 4 -24 9 4 5 -9
18 -26 30 -18 11 -46 36 -62 56 -16 19 -35 35 -42 35 -7 0 -16 9 -19 20 -3 11
-15 25 -26 30 -10 6 -19 17 -19 25 0 8 -9 19 -19 25 -11 5 -26 22 -33 37 -8
16 -19 37 -25 48 -23 41 -43 94 -43 112 0 10 -6 25 -12 32 -16 15 -19 498 -3
509 6 4 12 33 14 66 1 32 8 72 13 90 6 17 16 65 23 106 8 41 21 102 30 135 9
33 22 85 29 115 7 30 20 69 28 85 8 17 23 55 33 85 9 30 25 73 35 95 10 22 30
67 45 100 50 112 98 205 106 205 4 0 10 13 14 29 3 16 13 35 21 42 8 6 14 17
14 23 0 6 10 23 23 36 33 38 67 88 67 100 0 5 4 10 10 10 5 0 21 19 36 41 14
23 34 44 45 46 10 3 16 10 13 15 -5 8 36 57 43 51 9 -9 21 0 26 18 3 11 15 23
26 26 12 3 21 14 21 24 0 10 5 16 13 14 6 -3 31 12 53 33 23 20 59 51 79 67
21 17 52 45 71 62 18 18 37 33 41 33 4 0 27 17 50 38 62 56 121 102 129 102 5
0 17 9 29 20 39 39 120 100 132 100 7 0 17 8 22 18 5 9 27 26 48 37 21 11 68
39 105 62 36 24 77 47 90 53 12 6 37 19 53 29 17 11 36 20 43 20 14 1 51 16
137 56 28 12 68 28 90 35 22 6 58 20 81 30 22 10 76 28 120 40 43 12 92 29
107 37 16 8 31 13 34 10 3 -3 22 0 42 8 32 12 118 32 176 41 24 4 169 30 240
43 28 6 131 17 230 26 99 9 196 21 215 26 35 9 424 40 535 43 33 0 65 4 71 8
14 9 2202 4 2259 -5 22 -3 90 -8 150 -11 61 -3 133 -9 161 -12 48 -6 52 -5 56
17 3 13 28 103 56 199 199 687 327 1433 372 2165 17 276 8 1253 -14 1485 -104
1103 -334 2049 -734 3020 -291 706 -725 1480 -1166 2078 l-98 133 -50 -5 c-37
-3 -51 0 -55 10 -5 12 -7 13 -17 1 -9 -12 -26 -12 -96 -3 -47 6 -92 15 -100
20 -8 6 -32 13 -55 17 -22 4 -64 16 -94 28 -64 24 -55 29 -176 -96 -49 -51
-95 -93 -102 -93 -7 0 -13 -4 -13 -9 0 -5 -30 -24 -67 -42 -38 -18 -69 -37
-71 -41 -2 -4 -12 -8 -22 -8 -10 0 -22 -4 -25 -10 -3 -5 -14 -10 -23 -10 -10
0 -36 -10 -57 -22 -35 -19 -59 -22 -191 -26 -133 -3 -161 -1 -230 18 -42 12
-85 26 -93 30 -31 15 -152 60 -162 60 -6 0 -24 9 -40 21 -79 56 -139 2 -156
-138 -4 -37 -2 -43 13 -44 16 0 16 -2 -3 -11 -21 -10 -34 -32 -39 -68 -1 -8
-12 -62 -24 -120 -12 -58 -23 -114 -24 -125 0 -11 -7 -24 -14 -28 -11 -7 -10
-12 5 -23 17 -13 17 -13 -1 -14 -12 0 -16 -5 -12 -16 3 -8 2 -12 -4 -9 -6 3
-10 0 -10 -7 0 -7 -6 -25 -14 -40 -8 -15 -12 -36 -9 -48 4 -16 2 -19 -11 -14
-19 7 -21 -7 -4 -24 9 -9 9 -12 0 -12 -14 0 -54 -79 -46 -92 3 -5 -6 -25 -21
-44 -18 -23 -26 -44 -23 -59 3 -13 1 -23 -5 -22 -5 1 -11 -11 -13 -27 -1 -16
-8 -33 -15 -37 -7 -4 -13 -19 -15 -33 -1 -14 -12 -39 -23 -55 -11 -15 -17 -31
-14 -35 4 -3 -3 -20 -15 -36 -12 -16 -27 -40 -32 -52 -6 -13 -19 -36 -30 -53
-11 -16 -23 -37 -26 -45 -4 -8 -29 -45 -56 -82 -26 -37 -48 -72 -48 -78 0 -5
-6 -10 -14 -10 -8 0 -17 -8 -20 -17 -3 -10 -42 -56 -86 -103 -44 -47 -80 -87
-80 -90 0 -10 -70 -43 -77 -36 -4 4 -1 11 7 16 12 7 12 12 2 22 -9 9 -12 9
-12 -4 0 -14 -7 -16 -37 -11 -43 7 -91 33 -60 33 9 0 17 7 17 16 0 9 -7 14
-17 12 -10 -1 -23 1 -30 5 -6 4 -23 3 -38 -3 -21 -8 -31 -6 -55 11 -18 14 -37
20 -51 16 -41 -11 -49 12 -50 145 -1 118 4 229 17 348 4 30 7 73 9 95 3 68 27
219 35 230 6 9 23 119 25 165 0 8 3 20 7 26 4 6 10 49 14 95 4 46 10 89 15 94
4 6 8 26 8 45 -1 47 12 143 20 155 4 6 7 41 6 80 0 84 -7 88 -88 50 -31 -14
-62 -25 -71 -25 -8 0 -18 -5 -22 -11 -3 -6 -17 -8 -30 -5 -14 4 -26 1 -31 -7
-9 -16 -40 -26 -103 -33 -25 -3 -52 -10 -60 -14 -8 -4 -28 -6 -43 -3 -16 3
-27 1 -27 -6 0 -14 -106 -15 -115 -1 -4 7 -11 7 -18 2 -20 -14 -279 -15 -288
-1 -4 7 -22 14 -39 15 -47 3 -104 15 -115 23 -5 4 -39 18 -75 30 -36 13 -89
34 -118 47 -29 13 -55 24 -59 24 -3 0 -31 12 -62 26 -61 29 -115 66 -146 101
-11 13 -25 23 -30 23 -6 0 -15 9 -20 19 -6 11 -29 47 -52 81 -24 34 -43 68
-43 74 0 6 -7 22 -16 35 -12 16 -16 42 -15 82 1 31 -3 60 -9 64 -6 3 -7 12 -3
18 4 7 9 40 10 75 3 51 0 62 -13 62 -8 0 -13 4 -10 8 2 4 -12 7 -32 6 -20 -1
-47 2 -58 7 -13 4 -26 3 -33 -4 -9 -9 -16 -8 -31 1 -11 6 -31 12 -44 12 -14 0
-28 5 -32 11 -3 6 -15 9 -25 6 -10 -3 -22 -1 -25 5 -3 5 -12 7 -20 4 -7 -3
-16 -1 -18 3 -3 5 -30 11 -59 15 -30 3 -67 13 -83 21 -16 8 -39 15 -52 15 -12
0 -30 4 -40 9 -9 6 -48 22 -87 36 -76 28 -99 38 -160 65 -22 10 -60 26 -85 36
-25 10 -54 25 -65 34 -11 9 -37 25 -59 36 -21 10 -48 29 -60 41 -11 13 -25 23
-29 23 -5 0 -23 16 -41 35 -19 19 -37 35 -43 35 -5 0 -17 15 -27 33 -10 17
-37 51 -59 74 -21 22 -36 46 -33 52 4 6 4 11 -1 11 -12 0 -43 59 -43 83 0 11
-8 29 -17 40 -16 17 -18 44 -18 241 0 187 3 230 18 278 11 32 23 60 28 64 5 3
9 15 9 28 0 12 13 46 30 76 16 30 36 69 44 86 26 55 143 170 214 211 76 44
185 97 222 108 14 4 30 12 37 17 7 5 31 12 55 15 23 2 48 9 54 14 6 5 14 6 18
2 4 -4 10 -2 14 4 4 7 29 13 55 14 27 2 50 6 53 11 9 14 26 8 20 -7 -7 -19 8
-19 24 0 7 8 16 13 20 10 15 -9 22 15 10 30 -10 12 -10 154 0 305 2 37 40 149
73 220 18 39 115 179 166 239 25 30 91 101 145 158 55 57 98 103 95 103 -3 0
-97 32 -209 71 -847 293 -1697 467 -2610 534 -193 15 -934 27 -1115 19z m-245
-968 c0 -3 -4 -8 -10 -11 -5 -3 -10 -1 -10 4 0 6 5 11 10 11 6 0 10 -2 10 -4z
m20 -20 c0 -3 -4 -8 -10 -11 -5 -3 -10 -1 -10 4 0 6 5 11 10 11 6 0 10 -2 10
-4z m45 -46 c3 -5 -1 -10 -9 -10 -8 0 -18 5 -21 10 -3 6 1 10 9 10 8 0 18 -4
21 -10z m30 -30 c3 -5 1 -10 -4 -10 -6 0 -11 5 -11 10 0 6 2 10 4 10 3 0 8 -4
11 -10z m55 -45 c7 -8 8 -15 2 -15 -5 0 -15 7 -22 15 -7 8 -8 15 -2 15 5 0 15
-7 22 -15z m175 -205 c3 -5 1 -10 -4 -10 -6 0 -11 5 -11 10 0 6 2 10 4 10 3 0
8 -4 11 -10z m25 -30 c0 -5 -2 -10 -4 -10 -3 0 -8 5 -11 10 -3 6 -1 10 4 10 6
0 11 -4 11 -10z m50 -81 c0 -6 -4 -7 -10 -4 -5 3 -10 11 -10 17 0 6 -6 19 -12
28 -7 9 -3 5 10 -8 12 -13 22 -28 22 -33z m38 -74 c-3 -3 -9 2 -12 12 -6 14
-5 15 5 6 7 -7 10 -15 7 -18z m6184 -3627 c-9 -9 -12 -7 -12 12 0 19 3 21 12
12 9 -9 9 -15 0 -24z m-6504 -4440 l2 -1577 138 -3 137 -3 0 -190 0 -190 -565
0 -565 0 -3 193 -2 192 135 0 135 0 0 1380 0 1379 -132 3 -133 3 -3 185 c-1
101 0 190 2 197 4 11 90 13 428 11 l423 -3 3 -1577z m1484 0 l3 -1573 138 -3
137 -3 0 -189 0 -190 -565 0 -565 0 0 190 0 190 135 0 135 0 -2 1383 -3 1382
-132 3 -133 3 0 189 0 190 425 0 425 0 2 -1572z m1389 1313 c65 -31 127 -96
160 -168 24 -52 29 -76 29 -142 0 -106 -27 -176 -97 -251 -71 -77 -132 -104
-238 -104 -71 -1 -88 3 -147 32 -255 125 -262 491 -13 624 59 31 91 37 180 34
57 -2 93 -9 126 -25z m-7356 -52 c177 -15 331 -52 525 -126 l75 -29 3 -337 2
-337 -240 0 -240 0 0 140 c0 136 -1 141 -22 150 -92 39 -456 68 -621 51 -521
-56 -876 -438 -929 -999 -25 -268 31 -534 160 -752 57 -97 98 -149 190 -238
205 -199 471 -302 777 -302 106 0 330 28 408 50 l37 11 0 139 0 140 240 0 240
0 0 -329 c0 -251 -3 -331 -12 -339 -23 -19 -282 -100 -383 -121 -186 -38 -284
-46 -555 -46 -252 0 -271 2 -395 28 -325 70 -589 197 -821 397 -72 62 -144
140 -249 271 -27 34 -112 187 -147 265 -47 103 -104 296 -117 399 -15 111 -16
422 -2 525 24 173 107 408 202 572 257 443 739 758 1249 817 109 12 485 13
625 0z m2349 -995 c482 -76 801 -405 887 -914 7 -41 12 -142 12 -225 -1 -213
-38 -384 -119 -548 -188 -381 -562 -597 -1033 -597 -600 0 -1006 345 -1096
930 -17 109 -19 303 -5 405 63 442 324 770 719 900 188 62 433 81 635 49z
m7494 1 c245 -40 393 -128 495 -297 38 -64 62 -132 94 -273 16 -73 18 -132 16
-677 l-2 -598 129 0 129 0 3 -190 3 -190 -573 0 -572 0 2 188 3 187 141 3 142
3 7 132 c4 72 5 317 2 542 -4 377 -6 416 -25 483 -28 99 -62 149 -120 174 -41
19 -59 20 -167 15 -66 -4 -138 -11 -160 -18 -57 -16 -156 -89 -262 -194 l-93
-91 0 -522 0 -521 138 -3 137 -3 3 -187 2 -188 -570 0 -570 0 0 190 0 190 134
0 c113 0 135 2 140 16 8 20 6 1159 -3 1289 l-6 100 -135 5 -135 5 0 190 0 190
372 3 372 2 27 -120 c15 -66 30 -120 34 -120 3 0 35 27 70 61 213 199 482 275
798 224z m2341 -1 c127 -18 314 -62 431 -101 l85 -28 3 -258 2 -257 -220 0
-220 0 0 88 0 89 -37 11 c-21 6 -85 19 -143 28 -178 28 -325 5 -399 -62 -75
-67 -78 -135 -10 -209 49 -53 163 -111 364 -185 165 -62 360 -152 442 -206
275 -182 367 -485 232 -773 -32 -69 -54 -99 -122 -166 -118 -116 -244 -182
-437 -227 -110 -25 -429 -36 -581 -19 -161 18 -425 71 -502 100 l-27 11 0 280
0 280 218 -2 217 -3 3 -102 c3 -118 -13 -103 137 -128 181 -30 369 -14 463 41
92 54 121 154 68 235 -44 65 -121 105 -446 230 -183 71 -312 136 -407 208
-175 131 -253 290 -253 508 0 195 70 342 215 450 125 94 245 136 505 176 68
11 323 6 419 -9z m-4679 -944 l0 -900 140 0 140 0 -2 -192 -3 -193 -564 -3
c-311 -1 -567 1 -570 5 -3 5 -5 92 -3 196 l3 187 134 0 135 0 0 705 0 704
-137 3 c-103 2 -138 6 -137 16 1 6 2 93 3 192 l1 180 430 0 430 0 0 -900z
m-986 -6250 c146 -16 166 -19 174 -24 4 -2 34 -7 67 -10 33 -4 78 -11 100 -16
22 -6 49 -13 60 -16 11 -2 31 -7 45 -9 71 -13 150 -40 150 -52 0 -5 14 -9 32
-10 18 -1 36 -9 40 -18 5 -8 18 -15 28 -15 11 0 20 -4 20 -9 0 -5 14 -11 31
-15 17 -3 28 -10 24 -16 -3 -5 0 -7 8 -4 9 3 24 -7 38 -24 28 -34 75 -66 86
-59 5 3 20 -4 33 -14 20 -17 21 -18 4 -10 -12 6 -24 8 -26 5 -8 -8 56 -72 66
-66 5 3 6 0 3 -5 -4 -6 1 -21 11 -34 40 -55 112 -199 112 -224 0 -8 5 -17 10
-20 6 -3 10 -17 10 -30 0 -13 5 -36 12 -52 6 -15 10 -34 9 -40 -1 -7 2 -13 6
-13 4 0 9 -16 11 -36 1 -20 5 -41 9 -48 13 -20 15 -39 15 -186 0 -162 -17
-275 -62 -407 -33 -96 -120 -283 -132 -283 -4 0 -8 -4 -8 -10 0 -14 -82 -120
-93 -120 -6 0 -8 -3 -5 -6 3 -3 -4 -15 -16 -28 -11 -12 -28 -31 -36 -42 -24
-29 -91 -79 -102 -76 -5 1 -7 -1 -4 -6 10 -16 -66 -68 -84 -57 -6 3 -10 -1
-10 -10 0 -9 -5 -13 -11 -10 -5 4 -18 1 -27 -7 -30 -25 -217 -75 -317 -85 -33
-3 -57 -12 -71 -26 -26 -27 -71 -143 -119 -307 -66 -226 -144 -418 -165 -405
-5 3 -7 0 -5 -7 5 -12 -27 -47 -77 -86 -9 -7 -38 -15 -64 -18 -26 -2 -52 -8
-58 -13 -6 -5 -28 -12 -49 -16 -52 -10 -79 11 -115 87 -72 154 -99 296 -127
668 -8 112 -16 170 -23 170 -4 0 -36 -5 -72 -11 -86 -14 -287 -18 -375 -7 -38
5 -92 11 -118 13 -27 3 -53 8 -58 11 -6 3 -20 7 -32 9 -111 14 -370 85 -382
105 -3 5 -13 6 -22 3 -9 -4 -21 1 -29 12 -8 10 -14 13 -14 7 0 -7 -6 -12 -13
-12 -8 0 -28 -7 -46 -16 -17 -9 -37 -17 -44 -18 -7 -2 -19 -5 -27 -8 -85 -31
-109 -38 -132 -38 -15 0 -29 -4 -32 -9 -6 -10 -557 -8 -574 2 -18 12 -52 -42
-52 -83 0 -65 -22 -205 -34 -212 -8 -6 -7 -8 2 -8 19 0 15 -57 -5 -69 -14 -8
-15 -10 -3 -11 13 0 13 -1 0 -10 -10 -6 -11 -10 -2 -10 6 0 12 -5 12 -11 0 -5
-4 -8 -9 -5 -5 4 -7 -4 -3 -16 3 -14 2 -19 -6 -14 -7 4 -12 3 -12 -3 0 -5 4
-11 9 -13 5 -2 1 -40 -9 -88 -10 -47 -18 -81 -19 -76 -1 5 -10 1 -22 -10 -12
-10 -24 -18 -28 -17 -16 5 -51 -10 -51 -23 0 -7 -10 -19 -22 -25 -13 -7 -29
-19 -37 -26 -8 -8 -17 -11 -20 -6 -3 4 -19 9 -36 10 -28 2 -85 53 -85 75 0 5
-11 26 -25 47 -13 22 -27 52 -31 68 -4 15 -10 33 -14 38 -10 13 -62 151 -95
250 -44 132 -37 125 -124 123 -134 -2 -151 0 -151 20 0 10 -3 13 -8 6 -12 -18
-36 -22 -87 -13 -48 8 -146 20 -305 36 -41 4 -103 8 -137 8 -35 0 -63 2 -63 5
0 3 -28 3 -61 2 -44 -3 -64 0 -70 10 -6 10 -9 10 -9 1 0 -8 -13 -13 -32 -13
-43 0 -198 27 -223 39 -11 5 -39 17 -62 27 -24 10 -43 24 -43 31 0 7 -3 12 -7
12 -22 -4 -33 3 -33 18 0 13 3 14 12 5 7 -7 16 -12 22 -12 5 0 1 6 -10 14 -10
8 -23 11 -28 6 -13 -12 -36 12 -25 26 6 8 4 14 -6 18 -9 3 -13 2 -10 -4 3 -6
0 -10 -7 -10 -22 0 -78 96 -88 151 -38 197 51 467 201 616 186 184 466 308
784 347 102 12 265 13 283 2 6 -3 14 -2 17 4 5 8 12 7 23 -2 9 -7 13 -8 10 -3
-4 7 64 10 195 10 189 0 244 5 355 34 40 10 103 27 147 38 11 3 78 7 149 9 70
2 131 6 135 8 7 3 67 0 156 -9 l61 -6 33 73 c40 86 111 196 155 241 45 46 146
137 152 137 5 0 20 12 49 38 8 7 15 11 15 7 0 -3 20 8 45 25 50 34 206 109
293 141 246 89 391 121 530 120 40 -1 125 8 189 20 64 11 162 24 217 28 132 9
392 5 520 -9z m871 -260 c3 -5 2 -10 -4 -10 -5 0 -13 5 -16 10 -3 6 -2 10 4
10 5 0 13 -4 16 -10z m165 -184 c0 -6 -7 -1 -15 10 -8 10 -15 23 -15 28 0 6 7
1 15 -10 8 -10 15 -23 15 -28z m80 -161 c0 -5 -5 -3 -10 5 -5 8 -10 20 -10 25
0 6 5 3 10 -5 5 -8 10 -19 10 -25z"/>
<path d="M7155 10453 c-121 -19 -194 -46 -242 -90 -73 -66 -146 -216 -179
-366 -25 -109 -22 -329 5 -432 73 -277 242 -415 511 -415 113 0 251 44 302 97
125 129 208 397 195 627 -21 359 -197 561 -502 578 -38 2 -79 3 -90 1z"/>
<path d="M10889 3616 c-4 -5 -176 -21 -322 -31 -91 -6 -144 -17 -252 -52 -120
-39 -255 -100 -255 -115 0 -5 -3 -7 -7 -6 -12 2 -66 -25 -87 -44 -10 -10 -22
-15 -26 -13 -3 2 -13 -5 -20 -16 -8 -10 -18 -19 -23 -19 -16 0 -67 -44 -67
-59 0 -8 -3 -12 -6 -8 -8 8 -44 -25 -44 -41 0 -7 -4 -11 -9 -7 -6 3 -25 -9
-43 -27 -19 -19 -25 -29 -15 -25 13 5 17 3 14 -5 -2 -7 -11 -12 -21 -10 -10 2
-16 -4 -16 -18 0 -11 -4 -20 -10 -20 -5 0 -10 -7 -10 -15 0 -8 -3 -15 -7 -15
-5 0 -9 -10 -9 -22 -4 -46 -11 -63 -32 -73 -26 -11 -30 -27 -5 -18 12 5 14 3
7 -8 -20 -32 -13 -39 40 -39 29 0 57 -5 64 -12 9 -9 12 -9 12 1 0 9 6 11 18 6
18 -7 41 -11 78 -14 13 0 24 -10 27 -21 3 -12 14 -20 25 -20 11 0 22 -7 26
-15 3 -8 14 -15 25 -15 11 0 25 -8 30 -17 6 -10 11 -15 11 -10 0 9 45 -20 79
-51 14 -12 31 -20 38 -17 8 2 12 1 8 -4 -3 -5 28 -43 69 -84 40 -41 81 -86 91
-101 9 -14 21 -23 26 -21 7 5 24 -18 29 -40 1 -5 7 -21 13 -35 6 -14 11 -85
12 -160 0 -122 -3 -144 -29 -227 -16 -51 -33 -90 -37 -87 -5 3 -9 -4 -9 -15 0
-25 -78 -100 -104 -101 -11 0 -16 -3 -13 -7 4 -3 -1 -11 -10 -18 -13 -10 -2
-14 63 -24 75 -12 120 -21 189 -37 17 -4 33 -7 36 -6 6 1 91 -11 159 -23 178
-31 423 -40 593 -21 76 9 77 9 77 -13 0 -13 9 -30 20 -39 18 -14 22 -35 30
-137 20 -239 23 -270 29 -275 3 -3 7 -25 8 -50 2 -69 10 -130 17 -137 3 -4 6
-22 6 -42 0 -20 7 -45 15 -55 8 -10 12 -23 9 -27 -3 -5 5 -9 18 -9 20 0 27 12
56 108 82 263 116 368 123 377 4 6 15 32 24 59 20 59 55 116 72 116 7 0 10 6
7 13 -3 10 17 20 68 34 95 27 116 31 218 38 101 6 140 14 140 25 0 5 20 21 44
35 24 14 47 32 50 40 3 8 12 15 20 15 8 0 18 5 22 12 5 7 3 8 -5 3 -7 -4 11
17 39 46 77 81 164 226 223 374 56 139 77 373 48 517 -11 54 -49 186 -61 213
-5 11 -18 47 -30 79 -12 33 -24 64 -28 70 -4 6 -7 13 -7 16 -4 35 -134 173
-220 231 -27 19 -53 38 -56 42 -3 5 -9 8 -12 8 -4 0 -27 8 -53 19 -25 11 -50
20 -55 20 -5 0 -9 5 -9 11 0 6 -7 9 -15 6 -8 -4 -17 -2 -20 3 -3 5 -32 14 -65
21 -33 6 -60 15 -60 19 0 4 -21 11 -47 14 -27 4 -80 13 -119 21 -38 8 -85 15
-102 17 -18 1 -32 5 -32 9 0 4 -18 6 -40 5 -22 0 -40 1 -40 4 0 3 -8 6 -17 6
-10 1 -47 4 -83 8 -80 10 -110 12 -275 25 -142 11 -219 13 -226 7z m-985 -745
c4 -5 -3 -7 -14 -4 -23 6 -26 13 -6 13 8 0 17 -4 20 -9z m113 -67 c-7 -8 -52
13 -67 31 -12 15 -7 14 29 -4 23 -12 41 -24 38 -27z m63 -40 c0 -2 -11 2 -25
8 -14 6 -25 15 -25 20 0 5 11 1 25 -8 14 -9 25 -18 25 -20z m120 -114 c0 -5
-2 -10 -4 -10 -3 0 -8 5 -11 10 -3 6 -1 10 4 10 6 0 11 -4 11 -10z m25 -30 c3
-5 1 -10 -4 -10 -6 0 -11 5 -11 10 0 6 2 10 4 10 3 0 8 -4 11 -10z"/>
<path d="M9859 3329 l-24 -20 28 17 c15 9 27 18 27 20 0 8 -8 4 -31 -17z"/>
<path d="M8919 2706 c-2 -2 -40 -7 -84 -10 -44 -4 -109 -10 -145 -14 -36 -4
-129 -7 -208 -7 -112 0 -145 4 -152 15 -7 11 -11 12 -25 0 -24 -20 -85 -20
-85 -1 0 11 -3 12 -8 4 -9 -14 -56 -17 -119 -9 -24 3 -43 2 -43 -2 0 -4 -29
-7 -65 -7 -51 0 -65 3 -65 15 0 13 -1 13 -10 0 -6 -10 -29 -15 -72 -16 -35 -1
-70 -5 -78 -7 -42 -14 -112 -27 -120 -22 -5 3 -11 1 -14 -4 -4 -5 -25 -12 -49
-16 -23 -4 -46 -11 -52 -15 -5 -4 -23 -10 -40 -14 -63 -15 -177 -77 -216 -115
-22 -23 -44 -41 -49 -41 -5 0 -6 -7 -3 -17 4 -10 2 -14 -4 -10 -14 9 -37 -19
-28 -33 3 -5 -1 -13 -9 -16 -9 -3 -16 -14 -16 -25 0 -10 -10 -28 -22 -40 -13
-12 -17 -19 -10 -15 6 4 12 3 12 -3 0 -5 -4 -11 -10 -13 -9 -3 -18 -34 -19
-70 -1 -11 -6 -15 -15 -12 -8 3 -17 0 -22 -7 -4 -7 -3 -10 4 -5 16 10 21 -19
21 -121 0 -65 5 -101 16 -123 22 -42 124 -140 145 -140 10 0 23 -7 30 -15 7
-8 16 -12 21 -9 5 3 9 0 9 -6 0 -6 5 -8 10 -5 6 4 17 1 25 -5 17 -14 96 -21
233 -22 50 -1 92 -5 92 -10 0 -5 5 -6 12 -2 16 10 108 11 102 2 -7 -12 10 -10
22 2 6 6 22 6 44 0 19 -6 63 -11 98 -11 34 0 62 -4 62 -9 0 -5 9 -8 20 -7 11
1 20 6 20 12 0 6 3 6 8 -1 9 -14 45 -14 54 0 5 7 8 7 8 -2 0 -7 5 -10 10 -7 6
3 10 1 10 -4 0 -7 17 -10 40 -8 22 2 40 1 40 -2 0 -3 35 -7 78 -9 42 -2 91 -4
107 -4 17 -1 62 0 100 3 65 3 70 2 70 -16 0 -13 8 -21 23 -23 13 -2 25 -9 27
-15 2 -7 11 -39 21 -72 10 -33 35 -103 56 -155 21 -52 38 -102 38 -111 0 -9 3
-19 8 -23 4 -4 7 -11 8 -14 4 -28 28 -72 40 -72 16 0 21 21 28 115 7 102 23
203 41 260 8 28 15 68 15 90 0 71 16 109 52 124 18 7 38 19 43 25 20 22 90 51
129 53 23 2 149 5 281 9 132 3 245 10 250 16 7 6 1 16 -15 28 -17 12 -27 15
-31 8 -4 -6 -9 -1 -11 13 -1 13 -12 28 -24 34 -11 6 -19 16 -16 24 3 9 -2 11
-19 7 -13 -3 -18 -3 -11 0 17 8 15 27 -3 20 -10 -4 -14 1 -12 17 1 16 -3 21
-15 19 -18 -3 -69 73 -72 106 0 9 -9 26 -19 37 -11 12 -14 21 -7 23 7 3 7 8 2
15 -26 33 -30 103 -21 356 l4 114 -35 2 c-36 3 -244 14 -337 18 -29 2 -53 -1
-53 -6 0 -5 -6 -4 -13 2 -8 6 -16 9 -18 7z m717 -843 c-7 -7 -26 7 -26 19 0 6
6 6 15 -2 9 -7 13 -15 11 -17z"/>
<path d="M9530 2653 c0 -10 -3 -42 -6 -70 -4 -29 -3 -53 2 -53 5 0 10 32 12
70 1 39 0 70 -3 70 -3 0 -5 -8 -5 -17z"/>
<path d="M9555 2650 c-8 -24 -8 -278 0 -335 6 -46 54 -150 99 -214 35 -51 105
-117 118 -113 5 1 7 -1 4 -6 -7 -12 45 -53 112 -89 17 -9 21 -9 15 0 -5 9 -4
9 8 0 11 -9 25 -6 65 12 49 22 52 26 73 92 31 95 47 226 32 279 -19 70 -190
255 -277 299 -21 11 -58 33 -81 48 -24 15 -43 26 -43 23 0 -3 -16 2 -35 10
-49 20 -82 18 -90 -6z"/>
<path d="M12783 2565 c0 -22 2 -30 4 -17 2 12 2 30 0 40 -3 9 -5 -1 -4 -23z"/>
<path d="M9520 2494 c0 -8 5 -12 10 -9 6 4 8 11 5 16 -9 14 -15 11 -15 -7z"/>
<path d="M9520 2425 c0 -8 2 -15 4 -15 2 0 6 7 10 15 3 8 1 15 -4 15 -6 0 -10
-7 -10 -15z"/>
<path d="M9480 2201 c0 -5 5 -13 10 -16 6 -3 10 -2 10 4 0 5 -4 13 -10 16 -5
3 -10 2 -10 -4z"/>
<path d="M9425 2130 c3 -5 8 -10 11 -10 2 0 4 5 4 10 0 6 -5 10 -11 10 -5 0
-7 -4 -4 -10z"/>
<path d="M9460 2074 c0 -17 17 -36 24 -26 3 5 -1 15 -9 22 -8 7 -15 9 -15 4z"/>
<path d="M7066 1995 c4 -8 8 -15 10 -15 2 0 4 7 4 15 0 8 -4 15 -10 15 -5 0
-7 -7 -4 -15z"/>
<path d="M7070 1961 c0 -6 4 -13 10 -16 6 -3 7 1 4 9 -7 18 -14 21 -14 7z"/>
<path d="M12320 1713 l-25 -25 28 17 c15 10 27 21 27 26 0 12 -2 11 -30 -18z"/>
<path d="M7110 1649 c0 -5 5 -7 10 -4 6 3 10 8 10 11 0 2 -4 4 -10 4 -5 0 -10
-5 -10 -11z"/>
<path d="M7172 1624 c10 -10 20 -16 22 -13 3 3 -5 11 -17 18 -21 13 -21 12 -5
-5z"/>
<path d="M7495 1570 c-3 -5 -1 -10 4 -10 6 0 11 5 11 10 0 6 -2 10 -4 10 -3 0
-8 -4 -11 -10z"/>
<path d="M8630 1515 c0 -5 5 -17 10 -25 5 -8 10 -10 10 -5 0 6 -5 17 -10 25
-5 8 -10 11 -10 5z"/>
<path d="M8985 1460 c-3 -5 -1 -10 4 -10 6 0 11 5 11 10 0 6 -2 10 -4 10 -3 0
-8 -4 -11 -10z"/>
<path d="M8660 1425 c0 -5 5 -17 10 -25 5 -8 10 -10 10 -5 0 6 -5 17 -10 25
-5 8 -10 11 -10 5z"/>
<path d="M8985 1420 c3 -5 8 -10 11 -10 2 0 4 5 4 10 0 6 -5 10 -11 10 -5 0
-7 -4 -4 -10z"/>
<path d="M8920 1040 c0 -5 7 -10 15 -10 8 0 15 5 15 10 0 6 -7 10 -15 10 -8 0
-15 -4 -15 -10z"/>
<path d="M13940 19455 c-8 -9 -8 -15 -2 -15 12 0 26 19 19 26 -2 2 -10 -2 -17
-11z"/>
<path d="M13878 19310 c-81 -84 -148 -158 -148 -165 0 -7 -7 -15 -15 -19 -8
-3 -15 -10 -15 -16 0 -6 -11 -26 -25 -44 -14 -18 -22 -36 -18 -39 3 -4 1 -7
-5 -7 -7 0 -12 -9 -12 -20 0 -12 -7 -20 -17 -20 -16 -1 -16 -2 1 -15 20 -15
20 -15 0 -15 -18 0 -38 -38 -48 -90 -1 -8 -6 -23 -10 -32 -13 -29 -3 -255 12
-270 10 -10 14 -10 22 2 6 9 8 2 6 -22 -2 -27 1 -35 13 -34 11 1 16 -8 16 -29
0 -21 6 -32 20 -36 19 -5 19 -6 -3 -18 -19 -10 -26 -10 -39 1 -15 12 -16 9
-10 -31 5 -37 3 -44 -14 -48 -10 -3 -19 -12 -19 -19 0 -19 -29 -18 -36 1 -4 8
-10 15 -16 15 -5 0 -6 -4 -3 -10 8 -14 -29 -20 -110 -18 -122 3 -186 -10 -350
-70 -27 -10 -66 -27 -85 -37 -19 -11 -48 -25 -64 -32 -32 -15 -126 -109 -126
-127 0 -7 -8 -21 -18 -32 -22 -23 -42 -77 -42 -113 0 -20 -2 -23 -10 -11 -5 8
-12 11 -16 7 -4 -4 -2 -13 4 -19 15 -15 16 -52 2 -43 -6 4 -8 10 -5 15 3 5 1
11 -4 14 -10 6 -21 -20 -28 -64 -2 -14 -6 -34 -9 -45 -13 -61 -32 -230 -27
-239 4 -6 6 -23 4 -38 -1 -15 1 -33 6 -40 4 -7 8 -17 9 -23 5 -53 34 -109 34
-68 0 15 2 16 10 3 5 -8 7 -22 4 -31 -2 -10 2 -19 12 -23 16 -6 15 -8 -2 -21
-17 -13 -17 -14 -1 -15 9 0 17 -6 17 -14 0 -7 9 -16 20 -19 11 -3 20 -10 20
-17 0 -6 -4 -8 -10 -5 -12 8 -13 -5 -1 -24 6 -10 10 -10 16 -1 7 12 14 4 46
-57 7 -13 17 -23 23 -23 6 0 33 -23 61 -50 27 -28 54 -50 59 -50 5 0 17 -6 25
-13 42 -35 214 -94 286 -99 17 -1 35 -4 40 -7 18 -10 161 -27 229 -26 36 0 66
-3 66 -7 0 -12 38 -9 46 4 5 8 10 7 18 -3 12 -15 71 -26 62 -11 -3 5 5 7 18 5
13 -3 27 0 30 6 10 16 57 14 50 -2 -3 -10 5 -12 32 -9 23 3 39 0 45 -9 4 -7
25 -14 46 -16 21 -1 39 -7 41 -13 2 -5 7 -8 12 -5 15 10 67 -16 80 -40 7 -14
20 -25 27 -25 8 0 11 -4 8 -10 -3 -5 -19 -10 -36 -10 -31 0 -39 -14 -14 -24
21 -8 19 -20 -11 -55 -24 -29 -26 -41 -31 -149 -5 -101 -3 -120 11 -134 11
-12 13 -19 5 -24 -8 -5 -7 -10 5 -16 9 -5 16 -16 16 -25 0 -13 2 -14 17 -2 15
12 16 12 9 -6 -12 -31 -12 -39 -1 -40 13 0 75 -62 75 -74 0 -5 18 -21 40 -36
22 -15 40 -31 40 -35 0 -34 347 -62 384 -31 11 9 20 11 24 5 9 -13 81 -10 107
3 11 6 36 13 55 16 19 3 52 12 72 21 21 9 47 16 58 16 11 0 28 4 38 9 9 6 69
35 132 66 63 31 122 63 131 71 8 8 19 14 22 14 4 0 33 20 64 43 102 77 194
107 222 73 8 -10 29 -16 55 -16 23 0 46 -4 52 -9 5 -5 25 -14 46 -20 37 -12
57 -39 38 -51 -7 -4 -13 -54 -16 -126 -2 -65 -8 -132 -13 -149 -6 -16 -13 -86
-17 -155 -9 -156 -10 -161 -19 -183 -4 -9 -5 -26 -2 -37 3 -11 1 -23 -5 -26
-5 -3 -7 -13 -3 -22 6 -16 -10 -188 -25 -262 -5 -25 -12 -81 -15 -125 -3 -44
-8 -102 -11 -130 -5 -47 -4 -49 11 -30 8 11 13 25 11 32 -3 7 -1 15 4 18 6 4
10 16 10 28 0 16 3 19 9 8 12 -19 28 -6 36 29 4 17 10 30 15 30 4 0 16 26 26
58 9 31 23 68 30 82 21 43 50 113 68 170 10 30 24 69 31 85 7 17 15 48 18 71
3 23 12 56 20 75 9 19 27 72 40 119 33 111 69 207 100 263 14 25 23 47 21 50
-6 6 17 49 31 59 6 4 10 11 10 16 0 19 68 65 95 65 16 0 31 6 34 13 3 8 11 12
18 9 24 -8 73 -17 96 -17 12 0 22 -4 22 -9 0 -5 9 -9 20 -9 11 0 28 -4 38 -9
51 -26 135 -52 171 -54 22 -1 41 -4 41 -8 0 -4 12 -4 28 0 40 11 125 6 130 -7
3 -9 11 -8 30 2 15 7 43 17 62 21 19 4 52 16 74 26 21 10 42 16 47 14 4 -3 11
0 15 6 3 6 23 18 43 26 31 13 33 17 17 23 -12 4 -16 9 -9 13 6 4 18 4 26 1 21
-8 69 25 63 42 -3 8 1 14 9 14 8 0 15 4 15 9 0 11 146 131 160 131 5 0 10 7
10 15 0 9 6 12 15 9 10 -4 15 0 15 15 0 12 5 21 10 21 6 0 10 -8 10 -17 0 -11
3 -14 8 -7 13 20 57 24 81 8 12 -9 29 -13 38 -10 9 4 20 1 24 -5 4 -7 22 -12
41 -12 18 0 41 -6 50 -14 9 -9 46 -18 83 -21 36 -2 68 -8 70 -13 3 -4 19 -3
37 2 19 5 36 5 43 -1 12 -10 40 -8 51 3 4 4 14 1 23 -6 14 -11 15 -10 1 8
-166 223 -674 762 -995 1054 -875 798 -1835 1415 -2905 1868 l-34 15 -148
-152z m-280 -576 l-3 -49 -5 57 c-3 31 -1 53 3 49 5 -5 7 -30 5 -57z m2 -116
c0 -39 -11 -30 -16 12 -2 19 0 29 6 25 6 -3 10 -20 10 -37z m-914 -852 c0 -14
-5 -21 -9 -17 -4 4 -5 15 -1 24 9 24 12 21 10 -7z m-6 -78 c0 -23 -3 -38 -7
-34 -9 9 -15 47 -9 63 10 24 16 13 16 -29z m-4 -175 c-5 -12 -10 -13 -18 -5
-8 8 -8 15 3 28 15 18 25 4 15 -23z m1381 -1035 c-3 -8 -6 -5 -6 6 -1 11 2 17
5 13 3 -3 4 -12 1 -19z m0 -60 c-3 -8 -6 -5 -6 6 -1 11 2 17 5 13 3 -3 4 -12
1 -19z m18 -88 c3 -5 1 -10 -4 -10 -6 0 -11 5 -11 10 0 6 2 10 4 10 3 0 8 -4
11 -10z m1675 -360 c0 -5 -4 -10 -10 -10 -5 0 -10 5 -10 10 0 6 5 10 10 10 6
0 10 -4 10 -10z m-83 -682 c-3 -7 -5 -2 -5 12 0 14 2 19 5 13 2 -7 2 -19 0
-25z"/>
<path d="M6220 19439 c-78 -6 -196 -57 -585 -249 -410 -202 -740 -393 -1117
-643 l-138 -92 108 -8 c59 -4 123 -12 142 -17 19 -5 80 -14 135 -20 55 -7 108
-16 118 -21 9 -5 17 -5 17 -1 0 5 10 8 23 7 12 -2 97 -6 190 -10 159 -7 169
-9 201 -34 19 -14 40 -42 46 -62 15 -45 7 -835 -10 -919 -5 -30 -11 -69 -13
-87 -2 -18 -6 -35 -10 -39 -4 -4 -7 -52 -7 -106 0 -95 1 -98 23 -98 12 0 119
-2 238 -5 253 -5 380 -13 395 -26 6 -5 14 -5 20 1 6 6 23 6 44 0 31 -8 110
-19 165 -24 11 0 26 -5 34 -10 10 -6 16 -5 19 2 2 7 7 10 11 8 42 -26 457 -28
581 -3 47 10 99 22 115 27 79 25 379 34 616 20 11 -1 15 -8 12 -25 -3 -15 2
-27 16 -37 11 -8 18 -18 14 -21 -3 -4 0 -7 8 -7 8 0 30 -28 48 -62 66 -124 82
-154 105 -193 12 -22 33 -58 45 -80 13 -22 26 -42 30 -45 4 -3 29 -38 56 -79
28 -40 57 -84 65 -96 8 -12 33 -42 55 -67 22 -25 51 -59 64 -76 13 -17 32 -34
42 -37 11 -4 16 -12 12 -21 -4 -11 0 -15 12 -12 13 2 21 -5 26 -22 4 -14 7
-21 8 -17 1 5 17 -5 37 -21 20 -17 43 -28 50 -25 7 3 21 -8 31 -24 10 -17 23
-28 30 -26 6 2 14 -1 18 -6 14 -23 21 -9 19 37 -3 60 -29 179 -44 197 -6 7
-10 19 -9 27 3 14 -16 91 -31 123 -10 23 -18 86 -26 195 -4 41 -10 83 -15 92
-5 9 -9 41 -9 70 0 55 -21 156 -42 195 -6 13 -8 37 -4 60 4 21 8 44 8 51 1 7
8 10 15 7 11 -3 13 1 8 15 -4 11 -3 19 2 18 4 -1 20 6 35 16 15 10 33 19 40
20 7 1 24 9 38 18 14 9 52 21 85 28 33 6 68 16 77 21 11 5 19 5 23 -2 4 -6 11
-6 18 -1 7 5 55 12 108 15 61 4 112 13 142 26 25 11 63 23 84 27 21 4 47 13
58 20 11 8 28 14 38 14 41 0 213 80 355 165 50 30 176 159 201 206 9 19 27 51
39 72 12 20 20 37 18 37 -3 0 12 30 31 68 l36 67 5 174 c7 249 -10 308 -154
528 -30 45 -54 84 -54 87 0 22 -103 123 -239 236 -23 19 -61 51 -83 70 -63 54
-120 89 -155 96 -19 4 -33 12 -33 21 0 9 -6 12 -19 8 -10 -3 -24 1 -31 10 -7
8 -21 15 -32 15 -11 0 -27 4 -37 10 -10 5 -37 11 -60 12 -22 2 -41 6 -41 9 0
7 -65 21 -115 25 -16 1 -43 5 -60 8 -16 2 -50 5 -75 5 -25 1 -52 1 -60 1 -8 1
-80 2 -160 3 -80 2 -151 6 -157 10 -7 5 -21 4 -30 -2 -12 -6 -29 -5 -50 4 -18
8 -60 16 -95 19 -88 8 -151 17 -163 25 -5 3 -59 6 -120 6 -60 0 -113 4 -117 9
-3 5 -26 10 -50 11 -24 1 -53 7 -64 13 -12 6 -26 7 -34 2 -8 -5 -19 -5 -25 0
-18 15 -126 23 -315 24 -102 1 -219 7 -260 14 -41 8 -88 16 -105 18 -16 3 -49
6 -72 8 -22 1 -47 7 -55 13 -15 13 -227 21 -328 12z"/>
<path d="M13751 19251 c-8 -5 -9 -11 -3 -15 5 -3 12 1 16 9 6 17 6 18 -13 6z"/>
<path d="M13699 19208 c-12 -23 -12 -23 10 -4 23 21 26 26 11 26 -5 0 -15 -10
-21 -22z"/>
<path d="M13657 19155 c-10 -14 -14 -25 -9 -25 10 0 42 33 42 43 0 14 -16 5
-33 -18z"/>
<path d="M13630 19109 c0 -5 5 -7 10 -4 6 3 10 8 10 11 0 2 -4 4 -10 4 -5 0
-10 -5 -10 -11z"/>
<path d="M13210 18710 c0 -5 5 -10 11 -10 5 0 7 5 4 10 -3 6 -8 10 -11 10 -2
0 -4 -4 -4 -10z"/>
<path d="M13410 18385 c0 -8 5 -15 10 -15 6 0 10 7 10 15 0 8 -4 15 -10 15 -5
0 -10 -7 -10 -15z"/>
<path d="M13535 18390 c3 -5 10 -10 16 -10 5 0 9 5 9 10 0 6 -7 10 -16 10 -8
0 -12 -4 -9 -10z"/>
<path d="M13260 18378 c0 -4 12 -8 27 -8 14 0 23 3 19 7 -10 10 -46 11 -46 1z"/>
<path d="M5290 18330 c0 -26 32 -70 50 -70 27 0 25 9 -10 48 -31 34 -40 39
-40 22z"/>
<path d="M13470 18329 c0 -5 5 -7 10 -4 6 3 10 8 10 11 0 2 -4 4 -10 4 -5 0
-10 -5 -10 -11z"/>
<path d="M4144 18165 c-3 -7 4 -34 16 -59 19 -42 41 -93 45 -106 7 -19 22 -55
52 -117 18 -40 35 -76 36 -80 9 -33 91 -181 132 -238 53 -73 257 -285 275
-285 6 0 20 -9 32 -20 12 -10 25 -17 29 -15 4 3 10 -3 14 -14 3 -11 20 -24 36
-30 17 -6 40 -22 51 -36 11 -14 23 -23 28 -20 4 3 10 -2 14 -10 3 -8 14 -15
25 -15 16 0 20 10 24 68 4 37 13 112 20 167 10 66 15 205 16 405 l2 306 -23
21 c-32 29 -61 33 -243 35 -115 1 -166 5 -182 14 -12 8 -24 10 -27 6 -6 -10
-48 -8 -66 3 -13 8 -33 12 -105 20 -22 2 -40 4 -40 5 0 1 -35 3 -78 4 -57 3
-80 0 -83 -9z"/>
<path d="M3800 18023 c-358 -294 -515 -436 -803 -721 -217 -215 -404 -415
-567 -606 -111 -131 -280 -339 -280 -346 0 -3 127 -6 283 -6 155 0 291 -3 302
-8 11 -5 49 -11 85 -13 35 -2 66 -6 68 -8 3 -2 5 -16 5 -30 0 -19 7 -29 23
-35 19 -7 24 -17 24 -43 0 -18 5 -38 11 -44 6 -6 8 -17 3 -24 -4 -8 -9 -61
-11 -119 -4 -130 -22 -311 -32 -325 -5 -5 -11 -44 -15 -85 -8 -78 -17 -144
-36 -244 -12 -68 -8 -94 9 -51 7 16 23 50 36 76 12 25 26 60 30 77 3 17 13 36
21 43 8 6 14 19 14 28 0 9 10 34 21 56 12 22 27 55 34 75 7 19 33 78 58 130
44 94 79 170 82 180 7 30 29 87 36 96 5 6 7 13 4 16 -3 3 4 13 15 23 11 10 20
24 20 32 0 7 5 13 10 13 6 0 10 5 10 10 0 12 15 32 47 62 12 12 19 27 16 36
-4 9 -2 13 5 9 6 -4 25 2 44 12 18 11 56 25 83 32 28 6 55 15 60 19 11 8 102
19 210 26 39 3 113 14 167 24 53 11 111 20 128 20 18 0 46 7 63 15 45 20 111
43 187 65 36 10 83 24 104 30 22 7 110 16 195 20 86 4 176 13 201 19 25 5 61
10 81 11 43 0 59 15 63 61 2 19 6 45 9 59 4 14 8 53 11 88 l5 62 -30 0 c-16 0
-43 7 -60 15 -16 9 -33 13 -38 11 -5 -3 -14 1 -21 9 -7 8 -19 15 -27 15 -16 0
-70 28 -91 47 -7 7 -26 20 -42 30 -17 9 -30 21 -30 26 0 5 -7 7 -15 3 -9 -3
-15 0 -15 9 0 7 -10 17 -22 20 -40 12 -90 56 -84 72 5 11 2 13 -9 9 -9 -3 -18
1 -21 9 -3 8 -14 17 -25 20 -11 4 -17 11 -14 16 3 5 -1 6 -9 3 -9 -3 -16 -1
-16 5 0 6 -24 34 -52 63 -29 28 -52 56 -50 61 2 5 -4 7 -12 4 -15 -6 -31 18
-27 42 1 7 -2 10 -7 7 -11 -7 -48 39 -83 104 -13 25 -30 49 -36 53 -7 4 -13
14 -13 21 0 7 -11 33 -25 57 -14 24 -27 51 -31 59 -3 8 -10 23 -15 32 -5 10
-9 23 -9 30 0 6 -6 19 -13 27 -8 9 -24 45 -37 81 -13 36 -27 67 -30 70 -4 3
-17 34 -29 70 -27 80 -44 120 -51 120 -3 0 -25 -17 -50 -37z"/>
<path d="M5311 18014 c0 -11 3 -14 6 -6 3 7 2 16 -1 19 -3 4 -6 -2 -5 -13z"/>
<path d="M9665 17542 c-22 -26 -29 -38 -16 -27 34 28 71 65 71 70 0 14 -19 -2
-55 -43z"/>
<path d="M12290 17569 c0 -5 5 -7 10 -4 6 3 10 8 10 11 0 2 -4 4 -10 4 -5 0
-10 -5 -10 -11z"/>
<path d="M4285 17480 c3 -5 8 -10 11 -10 2 0 4 5 4 10 0 6 -5 10 -11 10 -5 0
-7 -4 -4 -10z"/>
<path d="M4681 16964 c0 -11 3 -14 6 -6 3 7 2 16 -1 19 -3 4 -6 -2 -5 -13z"/>
<path d="M8420 16940 c0 -5 5 -10 10 -10 6 0 10 5 10 10 0 6 -4 10 -10 10 -5
0 -10 -4 -10 -10z"/>
<path d="M4750 16930 c0 -5 5 -10 10 -10 6 0 10 5 10 10 0 6 -4 10 -10 10 -5
0 -10 -4 -10 -10z"/>
<path d="M8330 16930 c0 -5 5 -10 10 -10 6 0 10 5 10 10 0 6 -4 10 -10 10 -5
0 -10 -4 -10 -10z"/>
<path d="M8436 16891 c-4 -7 -5 -15 -2 -18 9 -9 19 4 14 18 -4 11 -6 11 -12 0z"/>
<path d="M8448 16800 c2 -16 8 -30 13 -30 10 0 12 21 3 44 -10 27 -21 18 -16
-14z"/>
<path d="M8460 16700 c0 -5 5 -10 11 -10 5 0 7 5 4 10 -3 6 -8 10 -11 10 -2 0
-4 -4 -4 -10z"/>
<path d="M8400 16480 c0 -5 5 -10 11 -10 5 0 7 5 4 10 -3 6 -8 10 -11 10 -2 0
-4 -4 -4 -10z"/>
<path d="M2906 16171 c-4 -7 -5 -15 -2 -18 9 -9 19 4 14 18 -4 11 -6 11 -12 0z"/>
<path d="M2907 16132 c-8 -12 -4 -82 5 -82 4 0 8 20 8 45 0 43 -4 53 -13 37z"/>
<path d="M3350 16094 c0 -22 2 -25 15 -14 8 7 15 19 15 26 0 8 -7 14 -15 14
-10 0 -15 -10 -15 -26z"/>
<path d="M8620 15985 c0 -30 4 -55 10 -55 5 0 9 25 8 55 -1 30 -5 55 -10 55
-4 0 -8 -25 -8 -55z"/>
<path d="M2900 16020 c0 -5 5 -10 10 -10 6 0 10 5 10 10 0 6 -4 10 -10 10 -5
0 -10 -4 -10 -10z"/>
<path d="M7920 16010 c0 -5 5 -10 10 -10 6 0 10 5 10 10 0 6 -4 10 -10 10 -5
0 -10 -4 -10 -10z"/>
<path d="M16960 16000 c0 -5 4 -10 9 -10 6 0 13 5 16 10 3 6 -1 10 -9 10 -9 0
-16 -4 -16 -10z"/>
<path d="M2900 15990 c0 -5 5 -10 10 -10 6 0 10 5 10 10 0 6 -4 10 -10 10 -5
0 -10 -4 -10 -10z"/>
<path d="M2895 15951 c-6 -11 9 -23 19 -14 9 9 7 23 -3 23 -6 0 -12 -4 -16 -9z"/>
<path d="M2900 15910 c0 -5 5 -10 10 -10 6 0 10 5 10 10 0 6 -4 10 -10 10 -5
0 -10 -4 -10 -10z"/>
<path d="M8620 15900 c0 -5 5 -10 10 -10 6 0 10 5 10 10 0 6 -4 10 -10 10 -5
0 -10 -4 -10 -10z"/>
<path d="M14800 15900 c0 -5 5 -10 10 -10 6 0 10 5 10 10 0 6 -4 10 -10 10 -5
0 -10 -4 -10 -10z"/>
<path d="M14840 15900 c0 -5 7 -10 15 -10 8 0 15 5 15 10 0 6 -7 10 -15 10 -8
0 -15 -4 -15 -10z"/>
<path d="M14725 15890 c-4 -6 6 -10 22 -10 22 0 25 2 13 10 -19 12 -27 12 -35
0z"/>
<path d="M8100 15870 c0 -5 5 -10 11 -10 5 0 7 5 4 10 -3 6 -8 10 -11 10 -2 0
-4 -4 -4 -10z"/>
<path d="M2896 15861 c-4 -7 -5 -15 -2 -18 9 -9 19 4 14 18 -4 11 -6 11 -12 0z"/>
<path d="M8622 15819 c2 -7 10 -15 17 -17 8 -3 12 1 9 9 -2 7 -10 15 -17 17
-8 3 -12 -1 -9 -9z"/>
<path d="M2886 15788 c-3 -13 -1 -27 4 -32 7 -7 10 1 10 22 0 37 -5 41 -14 10z"/>
<path d="M2882 15710 c0 -14 2 -19 5 -12 2 6 2 18 0 25 -3 6 -5 1 -5 -13z"/>
<path d="M8360 15712 c0 -12 19 -26 26 -19 2 2 -2 10 -11 17 -9 8 -15 8 -15 2z"/>
<path d="M2860 15625 c0 -8 5 -15 10 -15 6 0 10 7 10 15 0 8 -4 15 -10 15 -5
0 -10 -7 -10 -15z"/>
<path d="M2850 15564 c0 -8 5 -12 10 -9 6 3 10 10 10 16 0 5 -4 9 -10 9 -5 0
-10 -7 -10 -16z"/>
<path d="M2835 15500 c-3 -5 -1 -10 4 -10 6 0 11 5 11 10 0 6 -2 10 -4 10 -3
0 -8 -4 -11 -10z"/>
<path d="M2835 15431 c-3 -5 -1 -12 5 -16 5 -3 10 1 10 9 0 18 -6 21 -15 7z"/>
<path d="M2820 15391 c0 -6 5 -13 10 -16 6 -3 10 1 10 9 0 9 -4 16 -10 16 -5
0 -10 -4 -10 -9z"/>
<path d="M2810 15340 c0 -5 4 -10 9 -10 6 0 13 5 16 10 3 6 -1 10 -9 10 -9 0
-16 -4 -16 -10z"/>
<path d="M2807 15280 c-3 -11 -1 -23 4 -26 5 -3 9 6 9 20 0 31 -6 34 -13 6z"/>
<path d="M15615 15020 c-3 -5 -1 -10 4 -10 6 0 11 5 11 10 0 6 -2 10 -4 10 -3
0 -8 -4 -11 -10z"/>
<path d="M15231 14584 c0 -11 3 -14 6 -6 3 7 2 16 -1 19 -3 4 -6 -2 -5 -13z"/>
<path d="M15705 14550 c-3 -5 -2 -10 4 -10 5 0 13 5 16 10 3 6 2 10 -4 10 -5
0 -13 -4 -16 -10z"/>
<path d="M15645 14460 c-10 -11 -14 -20 -9 -20 5 0 15 9 22 20 7 11 11 20 9
20 -2 0 -12 -9 -22 -20z"/>
<path d="M15560 14375 c0 -8 4 -15 9 -15 5 0 11 7 15 15 3 9 0 15 -9 15 -8 0
-15 -7 -15 -15z"/>
<path d="M2360 7710 c0 -5 5 -10 11 -10 5 0 7 5 4 10 -3 6 -8 10 -11 10 -2 0
-4 -4 -4 -10z"/>
<path d="M2440 7658 c0 -21 -16 -24 -23 -5 -4 8 -8 8 -14 2 -13 -16 -84 -19
-94 -3 -7 10 -9 10 -9 1 0 -7 -11 -13 -24 -13 -14 0 -27 -4 -30 -9 -3 -5 -23
-12 -43 -16 -21 -3 -48 -13 -60 -21 -14 -8 -24 -10 -28 -4 -3 6 -1 10 4 10 6
0 11 7 11 15 0 14 -3 14 -25 -1 -13 -8 -28 -13 -34 -10 -5 3 -12 0 -14 -6 -4
-10 -6 -10 -6 0 -1 6 -12 12 -25 12 -13 0 -49 11 -80 25 -31 14 -58 25 -59 25
-2 0 -39 -34 -82 -75 -44 -41 -83 -75 -87 -75 -4 0 -8 -7 -8 -15 0 -8 -6 -15
-13 -15 -7 0 -84 -72 -171 -160 -88 -88 -187 -186 -220 -219 -34 -33 -138
-137 -233 -233 -94 -95 -222 -222 -284 -282 l-113 -109 24 -66 c22 -62 140
-342 209 -497 l32 -70 117 -59 c64 -32 149 -73 187 -92 39 -19 102 -52 140
-73 39 -22 93 -50 121 -64 28 -13 55 -29 58 -35 4 -6 24 -20 44 -30 20 -11 47
-29 59 -40 12 -12 27 -21 32 -21 5 0 12 -8 16 -19 3 -10 16 -30 28 -43 87 -97
88 -139 5 -193 -16 -9 -28 -24 -28 -33 0 -12 -5 -11 -23 6 -13 12 -32 22 -42
22 -22 0 -118 45 -146 68 -51 42 -67 60 -71 78 -2 10 -10 18 -16 16 -7 -1 -12
2 -12 8 0 15 -90 102 -141 136 -26 18 -76 48 -113 69 -36 20 -68 41 -72 46 -3
5 -10 9 -15 9 -19 0 268 -530 413 -763 117 -189 144 -226 215 -294 42 -40 79
-73 83 -73 8 0 22 27 24 43 1 5 10 15 20 23 11 8 16 14 12 14 -4 0 2 13 13 29
11 15 25 40 31 55 5 14 14 26 20 26 5 0 10 7 10 15 0 28 34 85 80 134 9 9 24
35 34 56 11 22 31 51 45 64 14 14 25 29 23 34 -1 5 5 15 15 23 10 7 14 14 10
14 -5 0 3 15 17 33 34 43 48 62 93 126 21 29 55 72 76 95 20 22 40 51 43 64 3
12 11 22 18 22 6 0 22 23 35 51 13 27 35 60 47 72 13 12 24 26 24 30 0 5 19
28 42 53 22 24 49 57 59 73 9 16 22 32 28 36 6 3 29 32 50 64 37 57 48 71 97
125 13 15 24 29 24 31 0 3 9 14 20 25 11 11 20 26 20 33 0 6 14 21 30 32 16
11 30 24 30 28 0 8 75 106 107 140 10 11 17 23 15 29 -1 5 1 7 6 4 10 -6 26 4
38 25 25 45 296 329 313 329 6 0 11 7 11 15 0 9 6 12 15 9 11 -5 13 -2 9 10
-4 10 -1 16 9 16 16 0 81 74 97 112 14 34 31 57 68 95 17 19 32 38 32 43 0 4
-22 13 -50 20 -27 6 -54 18 -61 26 -7 8 -42 33 -78 55 -63 38 -198 142 -251
194 -14 14 -28 25 -32 25 -7 0 -58 46 -129 115 -14 14 -29 25 -33 25 -3 0 -35
28 -70 63 -35 34 -94 89 -131 122 -38 33 -78 70 -90 83 -12 12 -27 22 -33 22
-6 0 -16 9 -22 20 -6 11 -19 20 -29 20 -10 0 -24 7 -31 15 -7 8 -28 15 -48 15
-21 0 -40 7 -48 18 -13 16 -13 16 -14 0z m-575 -278 c0 -2 10 -3 95 -15 81
-11 81 -11 130 -19 25 -5 51 -13 58 -18 6 -6 12 -7 12 -3 0 4 6 2 14 -5 8 -6
23 -10 33 -9 10 1 27 -1 38 -6 11 -4 45 -16 75 -27 111 -41 247 -114 318 -170
40 -32 76 -58 80 -58 4 0 45 -38 92 -83 83 -81 150 -163 150 -184 0 -6 6 -16
14 -22 12 -10 12 -17 -2 -44 -9 -18 -18 -33 -19 -35 0 -2 -25 8 -55 22 -51 24
-88 56 -88 76 0 6 -4 10 -9 10 -5 0 -12 9 -16 20 -7 24 -169 188 -199 201 -51
24 -82 43 -93 59 -7 10 -29 21 -49 25 -20 3 -47 13 -60 22 -13 8 -28 12 -33 8
-6 -3 -21 1 -33 9 -13 8 -42 17 -65 21 -24 4 -43 11 -43 16 0 4 -18 7 -40 5
-21 -2 -41 1 -43 7 -2 6 -12 12 -23 13 -38 5 -89 16 -93 20 -2 2 -10 -1 -17
-7 -8 -7 -14 -7 -19 1 -3 5 -17 10 -30 10 -13 0 -26 4 -30 9 -3 5 -17 8 -31 5
-20 -4 -24 -1 -22 13 2 12 -4 19 -20 21 -13 2 -26 10 -28 17 -3 8 -11 12 -18
9 -13 -5 -66 49 -66 66 0 18 34 27 84 24 28 -1 51 -3 51 -4z m-240 -456 c33
-3 70 -13 83 -20 12 -8 27 -12 32 -9 5 3 11 1 15 -5 3 -5 14 -10 23 -10 10 0
34 -9 55 -20 20 -11 47 -20 60 -20 13 0 41 -8 63 -19 21 -10 54 -22 72 -26 17
-3 32 -11 32 -16 0 -5 8 -9 18 -9 9 0 58 -20 107 -45 50 -24 95 -45 101 -45 7
0 14 -8 16 -17 3 -11 23 -23 49 -31 24 -7 55 -24 69 -37 14 -14 52 -51 85 -82
33 -32 59 -61 57 -65 -1 -5 2 -8 7 -8 11 0 46 -71 43 -87 -2 -7 7 -23 18 -35
16 -17 20 -31 16 -52 -8 -36 -33 -66 -51 -60 -8 3 -16 -4 -20 -16 -6 -20 -8
-20 -25 -5 -12 11 -26 14 -39 10 -14 -4 -21 -2 -21 7 -1 9 -4 9 -13 -3 -7 -8
-23 -15 -37 -15 -23 1 -89 34 -91 46 0 3 -2 20 -4 39 -1 19 -9 40 -17 45 -8 6
-13 17 -11 24 3 6 0 12 -6 12 -6 0 -11 7 -11 15 0 9 -13 29 -30 45 -16 16 -30
34 -30 40 0 5 -5 10 -10 10 -6 0 -20 9 -32 20 -12 11 -27 20 -34 20 -7 0 -15
9 -19 19 -4 13 -12 18 -22 14 -12 -5 -14 -3 -8 7 6 10 4 12 -8 7 -10 -3 -17
-2 -17 3 0 10 -28 27 -106 64 -21 10 -46 22 -54 27 -71 39 -90 48 -90 42 0 -3
-8 1 -17 9 -10 8 -34 21 -53 28 -19 7 -42 19 -51 27 -8 7 -23 13 -32 13 -9 0
-19 5 -22 10 -3 6 -15 10 -26 10 -10 0 -19 5 -19 10 0 6 -6 10 -12 10 -7 0
-35 11 -63 24 -27 13 -58 27 -67 30 -26 8 -22 34 5 38 16 2 21 9 19 27 -2 21
1 23 30 18 18 -3 60 -9 93 -13z m-426 -447 c18 -15 37 -27 42 -27 5 0 47 -18
94 -40 47 -22 87 -40 90 -40 5 0 37 -14 190 -86 28 -12 61 -28 75 -34 14 -5
43 -21 65 -34 22 -12 60 -34 85 -47 70 -39 160 -101 160 -111 0 -5 11 -13 25
-18 14 -5 25 -15 25 -22 0 -7 10 -18 22 -23 13 -6 28 -21 34 -34 7 -13 16 -26
21 -30 5 -3 27 -35 49 -71 21 -36 41 -67 44 -70 6 -6 11 -50 11 -94 0 -34 -38
-76 -51 -56 -5 9 -12 6 -23 -10 l-15 -22 -23 21 c-17 15 -32 20 -58 17 -19 -2
-42 0 -50 4 -9 5 -30 13 -46 19 -17 7 -31 19 -32 29 -5 41 -16 82 -23 82 -4 0
-10 9 -13 21 -4 14 -10 18 -19 13 -11 -6 -11 -5 0 8 14 17 4 33 -65 105 -13
13 -23 28 -23 33 0 5 -9 14 -19 20 -11 5 -35 24 -53 41 -51 47 -166 121 -308
197 -81 43 -200 110 -220 123 -8 5 -26 15 -40 21 -34 17 -97 75 -97 91 0 6 -3
21 -6 32 -7 20 -3 21 56 20 54 0 69 -5 96 -28z"/>
<path d="M1925 7240 c3 -5 8 -10 11 -10 2 0 4 5 4 10 0 6 -5 10 -11 10 -5 0
-7 -4 -4 -10z"/>
<path d="M2140 7209 c0 -5 5 -7 10 -4 6 3 10 8 10 11 0 2 -4 4 -10 4 -5 0 -10
-5 -10 -11z"/>
<path d="M2330 7160 c0 -5 5 -10 10 -10 6 0 10 5 10 10 0 6 -4 10 -10 10 -5 0
-10 -4 -10 -10z"/>
<path d="M2370 7150 c0 -5 5 -10 10 -10 6 0 10 5 10 10 0 6 -4 10 -10 10 -5 0
-10 -4 -10 -10z"/>
<path d="M2160 5816 c0 -8 5 -18 10 -21 6 -3 10 3 10 14 0 12 -4 21 -10 21 -5
0 -10 -6 -10 -14z"/>
<path d="M18980 6949 c-58 -4 -346 -7 -640 -8 -826 -2 -950 -3 -950 -12 0 -5
-31 -7 -70 -5 -38 2 -70 -1 -70 -5 0 -5 -21 -9 -47 -9 -27 0 -76 -5 -109 -10
-34 -6 -97 -13 -140 -16 -94 -7 -114 -9 -179 -18 -110 -15 -115 -15 -109 -4 4
6 -1 6 -14 -1 -11 -6 -36 -11 -56 -11 -19 0 -38 -4 -41 -10 -7 -11 -55 -7 -75
5 -9 6 -12 4 -8 -7 5 -11 -2 -15 -30 -16 -21 -1 -77 -9 -127 -17 -49 -9 -99
-15 -110 -16 -10 0 -24 -4 -30 -8 -5 -4 -39 -14 -75 -20 -36 -7 -74 -16 -85
-21 -11 -4 -42 -14 -70 -20 -27 -7 -63 -18 -80 -25 -16 -6 -75 -26 -130 -44
-55 -19 -111 -38 -125 -44 -14 -6 -29 -11 -35 -12 -5 -1 -35 -13 -65 -27 -30
-15 -66 -32 -80 -37 -14 -6 -32 -15 -40 -21 -8 -5 -31 -16 -50 -25 -43 -18
-96 -49 -118 -68 -9 -8 -24 -17 -32 -20 -8 -4 -40 -25 -70 -47 -30 -23 -73
-52 -95 -67 -22 -14 -51 -36 -65 -50 -14 -13 -101 -86 -195 -162 -93 -77 -190
-157 -214 -180 -24 -23 -48 -41 -53 -41 -4 0 -8 -3 -8 -7 0 -5 -22 -31 -48
-59 -67 -74 -112 -131 -112 -143 0 -6 -5 -11 -10 -11 -6 0 -15 -10 -21 -22
-22 -49 -41 -78 -50 -78 -5 0 -9 -4 -9 -9 0 -12 -46 -110 -69 -146 -11 -16
-20 -37 -21 -45 0 -8 -9 -33 -20 -55 -11 -22 -19 -46 -20 -53 0 -7 -4 -20 -9
-30 -14 -26 -24 -56 -22 -66 1 -4 -3 -13 -8 -20 -5 -6 -12 -28 -16 -49 -4 -20
-11 -40 -16 -43 -5 -3 -9 -14 -9 -26 0 -11 -6 -34 -14 -51 -8 -18 -17 -43 -20
-57 -17 -84 -34 -148 -39 -158 -4 -5 -1 -13 5 -15 10 -4 10 -8 1 -14 -11 -8
-27 -93 -26 -140 1 -15 -5 -23 -16 -24 -9 0 -11 -3 -5 -5 14 -6 6 -156 -9
-166 -9 -6 -9 -10 0 -16 15 -10 13 -53 -4 -70 -18 -18 -16 -35 2 -28 12 4 15
-3 15 -31 0 -29 -2 -33 -14 -24 -11 10 -16 8 -21 -9 -7 -23 5 -44 12 -22 10
26 21 10 25 -37 3 -26 15 -68 26 -93 26 -53 27 -68 6 -68 -9 0 -14 -6 -11 -12
2 -7 14 -12 26 -11 13 2 24 -4 28 -15 4 -9 12 -22 17 -28 6 -7 40 -48 76 -93
36 -44 68 -80 72 -81 4 0 18 -10 30 -22 39 -37 119 -101 142 -113 11 -6 45
-27 73 -47 29 -20 74 -44 100 -54 27 -10 53 -21 58 -25 28 -21 191 -70 275
-84 52 -8 122 -20 155 -26 56 -10 451 -6 545 6 98 12 213 18 510 26 179 4 345
12 370 16 62 12 313 -4 380 -24 64 -19 85 -33 48 -33 -14 0 -31 -7 -38 -15
-11 -13 -9 -20 9 -38 13 -14 21 -36 21 -56 0 -25 4 -32 15 -27 19 7 21 -37 2
-53 -8 -6 -15 -30 -16 -53 -1 -24 -3 -52 -4 -62 -1 -10 4 -21 11 -23 7 -3 10
1 6 11 -3 9 -1 16 5 16 8 0 11 -70 11 -236 l0 -235 29 20 c15 11 114 104 219
206 160 155 193 193 207 233 9 26 20 54 24 62 4 8 8 35 10 60 2 36 8 50 32 68
16 13 29 29 29 37 0 7 7 18 15 25 12 10 18 10 30 0 11 -9 15 -9 15 -1 0 6 -7
14 -15 17 -8 4 -15 11 -15 16 0 6 7 7 16 4 9 -4 22 -2 28 3 7 6 42 12 78 14
49 2 73 8 89 22 35 32 245 278 370 435 284 356 629 847 605 862 -13 9 -1676 9
-1690 0 -5 -3 -46 -6 -90 -8 -45 -1 -155 -5 -246 -9 -227 -10 -679 -8 -693 3
-7 5 -19 10 -27 10 -78 7 -100 28 -55 52 30 16 23 30 -16 30 -18 0 -28 4 -24
10 4 6 15 8 25 5 22 -7 38 14 19 25 -9 6 -4 11 17 16 16 4 34 10 39 14 6 4 41
11 79 15 38 4 77 11 85 16 20 11 229 39 336 45 44 2 89 7 100 10 19 6 92 15
230 29 60 6 197 13 335 17 41 2 80 6 87 11 6 4 14 3 17 -1 3 -5 40 -7 83 -5
116 7 486 13 668 13 17 -1 88 -1 159 -1 72 0 133 -2 136 -4 4 -3 43 0 86 5 48
5 80 5 82 -1 2 -5 7 -7 11 -4 10 5 108 6 221 2 47 -2 95 0 107 4 12 5 24 5 27
1 5 -8 84 -8 90 -1 26 30 181 309 297 534 l98 190 -1612 0 c-887 0 -1682 4
-1767 9 -179 11 -233 11 -312 1 -32 -4 -58 -4 -58 1 0 5 16 20 35 33 19 13 35
27 35 32 0 12 -57 11 -65 -1 -4 -6 -11 -7 -17 -4 -7 4 -2 14 13 25 19 15 21
21 10 28 -15 10 -3 21 32 27 12 2 51 13 87 24 36 11 99 32 140 45 135 43 371
83 525 89 44 2 80 5 80 6 0 2 303 12 338 11 9 -1 25 -1 35 -2 9 0 62 0 117 2
55 1 108 -2 118 -6 11 -5 17 -3 17 6 0 10 3 10 11 2 7 -7 20 -8 33 -3 11 4 53
5 92 1 39 -4 86 -3 105 0 18 4 40 4 48 -1 8 -4 26 -4 41 1 15 6 36 6 50 1 12
-5 43 -5 68 -1 25 3 59 3 74 -2 15 -4 40 -4 56 0 34 8 203 8 218 -2 6 -3 28
-2 49 4 20 6 49 7 64 3 14 -4 30 -6 35 -5 15 3 90 3 126 -2 19 -2 51 0 69 4
19 4 40 5 45 1 16 -10 135 -8 129 2 -3 4 4 5 16 1 12 -4 57 -6 99 -6 102 2
130 2 311 1 85 0 156 2 158 4 3 2 18 0 35 -5 20 -5 36 -5 44 2 8 7 14 7 19 -1
4 -6 14 -8 24 -4 9 3 45 5 81 4 73 -2 83 -2 125 2 17 2 41 0 53 -4 13 -5 29
-5 35 -1 7 4 29 8 50 8 38 0 38 0 73 80 109 247 314 792 314 834 0 12 -10 22
-27 27 -33 10 -573 12 -723 3z m-2110 -3628 c0 -6 -4 -13 -10 -16 -5 -3 -10 1
-10 9 0 9 5 16 10 16 6 0 10 -4 10 -9z m-1 -58 c0 -25 -1 -26 -9 -8 -12 27
-12 35 0 35 6 0 10 -12 9 -27z m-2 -190 c-2 -16 -4 -5 -4 22 0 28 2 40 4 28 2
-13 2 -35 0 -50z"/>
<path d="M15776 6760 c-11 -3 -15 -9 -10 -13 10 -6 42 9 34 16 -3 3 -14 1 -24
-3z"/>
<path d="M3889 6560 c-1 -3 0 -14 1 -25 1 -19 1 -19 -12 -3 -11 15 -20 16 -58
7 -60 -13 -120 -40 -114 -51 3 -5 10 -6 15 -3 5 4 9 1 9 -5 0 -7 -7 -9 -16 -6
-19 7 -93 -66 -155 -154 -24 -36 -57 -71 -72 -78 -15 -7 -27 -20 -27 -28 0 -7
-9 -14 -20 -14 -11 0 -20 -5 -20 -11 0 -6 -56 -66 -125 -134 -69 -68 -125
-126 -125 -129 0 -2 -14 -19 -30 -38 -17 -18 -38 -42 -48 -54 -9 -11 -48 -56
-87 -98 -38 -43 -88 -102 -110 -130 -22 -29 -46 -59 -53 -67 -7 -8 -29 -35
-49 -61 -19 -27 -40 -48 -44 -48 -5 0 -9 -6 -9 -14 0 -7 -10 -24 -23 -38 -13
-14 -45 -53 -72 -87 -26 -33 -52 -61 -56 -61 -5 0 -9 -6 -9 -14 0 -8 -13 -28
-30 -46 -16 -18 -45 -51 -62 -74 -34 -42 -42 -53 -68 -83 -8 -9 -19 -25 -25
-34 -5 -9 -36 -47 -67 -85 -32 -37 -58 -72 -58 -76 0 -5 -11 -19 -25 -32 -14
-13 -25 -28 -25 -34 0 -6 -6 -15 -13 -19 -7 -4 -26 -26 -42 -48 -17 -22 -49
-60 -72 -85 -24 -25 -43 -50 -43 -56 0 -6 -10 -20 -22 -31 -40 -37 -68 -71
-68 -82 0 -6 -4 -11 -8 -11 -5 0 -15 -11 -22 -25 -8 -14 -20 -23 -27 -21 -24
10 -13 -28 17 -58 17 -16 30 -33 30 -38 0 -13 21 -33 43 -41 9 -3 16 -12 15
-19 -2 -9 11 -14 39 -16 34 -3 42 0 37 11 -3 8 -1 18 5 22 6 3 11 15 11 26 0
11 7 31 16 45 16 23 20 24 83 17 73 -7 97 -7 156 1 114 15 435 18 535 5 58 -7
112 -13 120 -12 8 1 17 -2 20 -6 3 -5 39 -16 80 -25 140 -30 265 -69 347 -106
24 -11 47 -20 53 -20 5 0 26 -8 47 -19 37 -18 65 -31 223 -103 110 -50 120
-55 177 -91 28 -18 73 -45 100 -62 49 -30 132 -112 133 -130 1 -12 35 -55 44
-55 3 0 6 9 6 19 0 11 4 22 9 25 4 3 19 38 31 78 13 40 29 80 35 88 7 8 18 32
24 52 7 20 25 55 42 77 16 23 29 51 29 64 0 13 9 32 21 43 11 10 29 38 40 61
11 24 24 43 29 43 6 0 10 9 10 19 0 10 7 21 15 25 8 3 14 9 13 13 -2 4 8 26
22 48 13 22 29 51 36 65 6 14 18 31 27 39 10 7 17 18 17 23 0 9 49 77 94 131
13 16 26 42 30 57 3 17 14 31 26 35 11 4 18 10 15 15 -3 5 4 20 15 32 12 13
28 30 36 39 8 9 12 24 8 33 -4 12 -1 16 15 16 14 0 23 8 27 27 4 15 18 37 31
49 14 13 22 27 19 32 -3 5 12 24 34 42 22 19 38 35 36 38 -3 2 0 9 5 16 6 6
19 26 30 44 10 18 28 36 40 40 11 5 19 10 18 12 -6 13 14 50 28 50 9 0 13 6 9
15 -3 9 0 15 9 15 8 0 15 6 15 13 0 7 14 27 30 45 17 18 30 37 30 43 0 5 5 9
10 9 6 0 16 12 23 28 16 37 35 55 48 46 7 -4 10 -1 7 7 -2 7 -1 18 4 24 17 20
63 83 78 105 8 13 25 33 38 46 12 13 22 27 22 32 0 5 18 27 41 50 22 23 38 46
34 52 -3 6 1 7 10 4 9 -4 15 -3 14 2 -4 21 3 35 29 66 15 18 36 51 47 73 11
22 23 42 28 43 9 5 37 57 37 72 0 6 -8 13 -17 17 -10 3 -43 23 -73 42 -30 20
-63 41 -72 46 -9 6 -52 34 -95 64 -43 30 -98 68 -123 85 -25 16 -47 32 -50 35
-23 26 -250 132 -288 136 -68 6 -68 6 -47 15 19 8 19 9 -2 9 -12 1 -25 6 -28
11 -7 12 -45 14 -45 2 0 -14 -48 -6 -66 12 -14 14 -29 17 -68 14 -28 -3 -45
-3 -38 -1 17 6 15 23 -3 23 -8 0 -15 -7 -15 -15 0 -12 -4 -11 -20 5 -25 25
-41 26 -34 3 5 -17 5 -17 -9 0 -8 10 -21 15 -31 11 -9 -3 -16 -1 -16 5 0 6 -5
11 -11 11 -5 0 -7 -4 -4 -10 3 -5 0 -10 -7 -10 -7 0 -19 9 -26 20 -14 22 -48
27 -55 8 -3 -8 -6 -5 -6 6 -1 16 -7 18 -43 13 -27 -4 -37 -2 -27 4 10 6 7 9
-13 9 -14 0 -33 3 -42 6 -9 3 -16 1 -16 -4 0 -6 10 -12 23 -14 13 -3 6 -6 -20
-9 -24 -2 -43 -1 -43 3 0 5 7 8 15 8 8 0 15 4 15 9 0 14 -40 21 -66 11 -14 -6
-26 -6 -29 1 -7 10 -324 9 -326 -1z m256 -28 c-3 -3 -11 0 -18 7 -9 10 -8 11
6 5 10 -3 15 -9 12 -12z m-172 1 c-7 -2 -19 -2 -25 0 -7 3 -2 5 12 5 14 0 19
-2 13 -5z m-148 -23 c-3 -5 -11 -10 -16 -10 -6 0 -7 5 -4 10 3 6 11 10 16 10
6 0 7 -4 4 -10z m-48 -16 c-3 -3 -12 -4 -19 -1 -8 3 -5 6 6 6 11 1 17 -2 13
-5z m1006 -41 c-7 -2 -19 -2 -25 0 -7 3 -2 5 12 5 14 0 19 -2 13 -5z m124 -29
c-3 -3 -12 -4 -19 -1 -8 3 -5 6 6 6 11 1 17 -2 13 -5z m-467 -355 c19 1 55 -3
80 -9 25 -6 55 -13 67 -15 28 -4 95 -27 109 -37 6 -5 18 -6 26 -3 9 4 18 -1
21 -9 4 -9 16 -16 27 -16 11 0 20 -4 20 -10 0 -5 5 -10 11 -10 13 0 80 -50 97
-72 7 -10 19 -18 25 -18 7 0 37 -27 66 -61 52 -59 82 -131 60 -145 -5 -3 -9
-11 -9 -19 0 -8 -5 -26 -11 -42 -7 -19 -12 -24 -18 -14 -7 10 -9 9 -14 -3 -4
-9 -13 -13 -22 -10 -8 3 -15 2 -15 -3 0 -6 -13 -9 -29 -8 -20 1 -31 -4 -34
-15 -3 -11 -19 -19 -43 -23 -65 -11 -89 -8 -107 13 -9 11 -15 20 -12 20 3 0
-21 27 -52 60 -31 34 -63 70 -70 80 -8 11 -21 20 -29 20 -19 0 -18 -16 1 -24
8 -3 15 -13 15 -22 0 -13 -7 -9 -28 14 -16 18 -34 32 -39 32 -6 0 -16 14 -22
31 -7 21 -15 29 -25 26 -11 -4 -13 -1 -9 11 3 9 3 14 -2 10 -4 -4 -15 -2 -23
5 -13 10 -15 9 -9 -5 4 -12 2 -15 -8 -12 -7 3 -16 11 -18 19 -3 7 -23 16 -44
19 -21 4 -56 13 -78 21 -41 13 -259 25 -522 27 -82 1 -143 6 -143 11 0 5 -6 4
-13 -2 -8 -6 -17 -8 -20 -5 -3 3 -25 7 -49 8 -104 6 -101 5 -95 26 3 11 1 23
-4 26 -5 3 3 16 19 29 19 16 50 26 102 34 41 6 91 14 110 16 19 3 42 6 50 6 8
0 69 8 135 16 160 21 186 23 355 29 80 3 150 7 155 8 6 2 14 1 20 -2 5 -3 25
-5 45 -3z m-567 -401 c31 1 57 -3 57 -8 0 -6 -5 -10 -12 -10 -6 0 -8 -3 -4 -7
4 -5 13 -1 19 7 7 8 29 16 50 17 32 3 37 0 37 -19 0 -21 1 -21 20 -3 20 18 21
18 35 -1 8 -11 15 -14 15 -6 0 19 20 15 60 -13 19 -14 50 -26 69 -28 18 -2 42
-12 54 -23 12 -10 28 -17 35 -16 7 2 15 -4 18 -13 3 -8 14 -15 24 -15 10 0 23
-7 30 -15 7 -8 17 -15 22 -15 13 0 94 -59 138 -102 60 -57 72 -80 60 -112 -6
-18 -6 -25 0 -21 26 16 5 -18 -37 -61 -27 -26 -47 -50 -46 -53 0 -3 -23 -18
-53 -34 -41 -21 -54 -24 -54 -13 0 8 -9 18 -21 21 -11 4 -42 25 -68 48 -86 76
-99 85 -105 80 -3 -4 -6 -2 -6 4 0 12 -100 79 -112 76 -5 -2 -8 1 -8 5 0 5
-16 14 -35 22 -19 8 -35 18 -35 23 0 5 -9 7 -19 4 -12 -3 -22 1 -25 9 -3 8
-14 14 -24 14 -10 0 -23 5 -29 11 -6 6 -30 12 -54 13 -23 1 -45 8 -47 14 -2 7
-15 12 -28 12 -14 0 -22 -4 -19 -10 3 -5 1 -10 -4 -10 -6 0 -11 4 -11 9 0 9
-39 12 -105 10 -23 -1 -50 0 -67 2 -7 1 -25 -1 -40 -4 -21 -4 -26 -2 -21 9 4
12 0 14 -21 8 -15 -3 -40 -7 -56 -8 -16 -1 -31 -4 -35 -7 -3 -4 -23 -3 -45 1
-28 5 -43 3 -51 -6 -6 -7 -17 -10 -25 -7 -15 6 -32 -1 -105 -38 -20 -11 -44
-19 -54 -19 -15 0 -14 4 5 36 12 19 20 38 16 41 -3 3 15 21 40 40 49 38 136
75 200 87 21 5 43 11 49 14 5 4 19 8 30 9 45 5 126 27 131 35 3 4 10 8 15 8 6
0 7 -4 4 -10 -3 -5 1 -10 9 -10 9 0 16 4 16 8 0 5 13 9 30 9 16 0 27 -4 24 -9
-3 -4 0 -8 5 -8 6 0 11 6 11 14 0 16 43 26 75 18 11 -3 46 -5 78 -4z m811 -87
c14 -30 14 -33 1 -16 -8 11 -21 27 -28 35 -28 33 -31 42 -9 29 11 -7 27 -29
36 -48z m-1427 -420 c17 -5 34 -7 37 -4 10 11 86 13 86 3 0 -6 8 -5 20 2 16
10 24 10 40 0 11 -6 27 -12 35 -12 9 0 13 -4 10 -10 -3 -5 -2 -10 4 -10 5 0
18 -3 28 -6 15 -5 15 -4 3 5 -13 9 -13 11 3 11 9 0 17 -6 18 -12 0 -8 2 -9 5
-2 7 17 63 4 75 -17 10 -20 29 -26 29 -8 0 5 -4 7 -10 4 -5 -3 -10 1 -10 9 0
14 3 14 23 4 12 -7 25 -17 28 -21 3 -5 9 -8 13 -8 3 0 13 -2 21 -6 9 -3 18 -3
22 0 3 4 20 -1 37 -10 17 -9 36 -17 41 -18 6 0 26 -8 45 -17 53 -24 74 -31 88
-29 6 1 12 -5 12 -14 0 -17 16 -20 26 -4 4 6 9 7 13 2 7 -11 75 -43 90 -43 6
0 11 -4 11 -10 0 -5 9 -10 20 -10 12 0 17 -5 14 -14 -3 -8 -1 -17 5 -21 6 -3
11 -2 11 4 0 5 12 8 28 6 15 -2 26 -8 24 -15 -2 -8 4 -11 18 -7 11 3 20 1 20
-4 0 -5 7 -9 16 -9 11 0 14 -6 9 -20 -5 -14 -2 -20 9 -20 9 0 16 4 16 10 0 5
6 7 14 4 9 -3 12 -12 8 -22 -5 -15 -3 -15 10 -4 11 9 18 10 23 2 3 -5 -1 -13
-9 -16 -9 -3 -16 -11 -16 -17 0 -7 4 -7 12 1 21 21 28 13 28 -28 0 -71 -89
-145 -165 -136 -25 3 -101 42 -110 56 -4 6 -15 8 -26 5 -11 -4 -19 -2 -19 5 0
7 -6 10 -14 7 -8 -3 -20 1 -26 9 -7 8 -19 14 -26 14 -8 0 -14 4 -14 9 0 5 -9
7 -20 4 -12 -3 -20 0 -20 7 0 7 -8 10 -20 7 -14 -3 -20 0 -20 11 0 8 -3 13 -6
10 -3 -4 -18 -3 -34 2 -18 5 -32 4 -39 -3 -7 -7 -11 -7 -11 -1 0 5 5 15 10 20
7 7 -2 10 -27 11 -21 1 -42 8 -49 17 -6 9 -21 16 -33 16 -11 0 -21 5 -21 10 0
6 -7 10 -15 10 -8 0 -15 5 -15 10 0 6 -14 10 -31 10 -18 0 -37 6 -43 14 -16
19 -91 46 -128 46 -17 0 -39 7 -49 16 -10 9 -40 19 -66 21 -26 3 -55 11 -63
19 -9 7 -32 11 -55 9 -22 -1 -46 2 -53 7 -7 6 -15 8 -18 5 -3 -3 -19 -1 -35 3
-16 5 -29 5 -29 0 0 -5 -9 -8 -20 -7 -11 1 -20 4 -20 7 0 3 -17 6 -38 7 -41 3
-86 -9 -149 -39 -54 -25 -70 -16 -41 22 12 17 19 33 15 36 -9 9 41 38 140 81
18 8 70 18 115 24 68 8 153 23 153 28 0 1 14 -3 32 -8z m278 -431 c6 -1 28 -3
50 -4 77 -4 85 -6 85 -20 0 -7 9 -16 19 -19 14 -3 18 -1 14 9 -3 8 1 14 11 14
9 0 16 -4 16 -9 0 -5 18 -12 40 -16 35 -6 40 -10 34 -27 -6 -19 -5 -19 20 -3
25 17 26 17 26 -4 0 -15 -4 -19 -17 -14 -19 7 -18 5 10 -17 14 -10 17 -11 15
0 -2 7 3 15 10 17 7 3 10 -1 7 -9 -4 -9 8 -18 38 -26 24 -7 60 -30 82 -52 22
-21 43 -39 48 -40 10 0 47 -38 47 -49 0 -5 11 -16 25 -25 14 -9 25 -23 25 -32
0 -8 7 -23 16 -31 8 -9 13 -24 11 -35 -3 -10 -1 -16 4 -12 5 3 9 -4 9 -15 0
-12 -4 -21 -9 -21 -5 0 -13 -9 -16 -20 -3 -11 -17 -23 -31 -26 -13 -3 -24 -12
-24 -20 0 -8 -6 -11 -15 -8 -8 4 -15 2 -15 -3 0 -5 -15 -14 -34 -20 -28 -9
-36 -8 -40 3 -3 8 -13 14 -21 14 -9 0 -70 54 -136 120 -66 67 -124 118 -129
115 -6 -3 -10 -1 -10 5 0 7 -8 9 -20 5 -13 -4 -23 0 -32 14 -7 12 -21 21 -30
21 -10 0 -18 5 -18 11 0 6 -6 9 -12 6 -7 -2 -30 7 -51 20 -22 14 -45 22 -52
19 -7 -2 -39 2 -72 11 -64 17 -90 20 -301 27 -92 3 -149 9 -159 17 -14 12
-146 18 -187 8 -10 -2 -21 1 -23 8 -5 13 79 65 111 69 12 1 22 3 24 4 3 4 14
6 67 14 52 7 92 11 255 22 52 3 96 7 97 8 2 2 227 -1 238 -4z"/>
<path d="M4542 5739 c2 -7 10 -15 17 -17 8 -3 12 1 9 9 -2 7 -10 15 -17 17 -8
3 -12 -1 -9 -9z"/>
<path d="M4440 5440 c-9 -6 -10 -10 -3 -10 6 0 15 5 18 10 8 12 4 12 -15 0z"/>
<path d="M3585 5110 c-3 -5 -1 -10 4 -10 6 0 11 5 11 10 0 6 -2 10 -4 10 -3 0
-8 -4 -11 -10z"/>
<path d="M3840 5020 c0 -6 7 -10 15 -10 8 0 15 2 15 4 0 2 -7 6 -15 10 -8 3
-15 1 -15 -4z"/>
<path d="M3905 4990 c3 -5 8 -10 11 -10 2 0 4 5 4 10 0 6 -5 10 -11 10 -5 0
-7 -4 -4 -10z"/>
<path d="M4040 4940 c0 -5 5 -10 10 -10 6 0 10 5 10 10 0 6 -4 10 -10 10 -5 0
-10 -4 -10 -10z"/>
<path d="M4240 4726 c0 -2 7 -7 16 -10 8 -3 12 -2 9 4 -6 10 -25 14 -25 6z"/>
<path d="M3996 4511 c22 -21 27 -21 18 3 -3 9 -13 16 -22 16 -13 0 -12 -3 4
-19z"/>
<path d="M4080 4430 c0 -5 5 -10 10 -10 6 0 10 5 10 10 0 6 -4 10 -10 10 -5 0
-10 -4 -10 -10z"/>
<path d="M4100 4390 c0 -5 5 -10 11 -10 5 0 7 5 4 10 -3 6 -8 10 -11 10 -2 0
-4 -4 -4 -10z"/>
<path d="M4125 4360 c3 -5 8 -10 11 -10 2 0 4 5 4 10 0 6 -5 10 -11 10 -5 0
-7 -4 -4 -10z"/>
<path d="M5223 6353 c9 -9 20 -13 24 -9 4 4 1 11 -7 16 -25 16 -35 11 -17 -7z"/>
<path d="M5305 6310 c-3 -5 -1 -10 4 -10 6 0 11 5 11 10 0 6 -2 10 -4 10 -3 0
-8 -4 -11 -10z"/>
<path d="M5530 6152 c0 -12 19 -26 26 -19 2 2 -2 10 -11 17 -9 8 -15 8 -15 2z"/>
<path d="M5803 5783 c-6 -16 -25 -43 -63 -90 -6 -7 -10 -16 -10 -20 0 -4 -16
-25 -35 -47 -19 -21 -35 -44 -35 -52 0 -8 -5 -14 -10 -14 -6 0 -14 -8 -17 -17
-4 -10 -16 -30 -27 -44 -12 -14 -30 -38 -41 -53 -11 -15 -30 -40 -42 -54 -13
-15 -23 -32 -23 -38 0 -6 -20 -32 -45 -58 -25 -27 -45 -53 -45 -60 0 -6 -9
-17 -20 -24 -11 -7 -20 -17 -20 -22 0 -11 -6 -18 -75 -96 -25 -28 -45 -54 -45
-58 0 -3 -7 -14 -16 -23 -39 -44 -64 -79 -64 -90 0 -6 -4 -13 -9 -15 -13 -5
-111 -126 -111 -137 0 -6 -8 -14 -17 -20 -10 -5 -15 -12 -11 -16 3 -4 -1 -14
-10 -24 -9 -10 -30 -35 -47 -56 -16 -21 -38 -46 -47 -56 -9 -9 -14 -20 -11
-22 2 -3 -4 -14 -14 -25 -29 -31 -113 -150 -113 -160 0 -5 -11 -19 -25 -32
-14 -13 -25 -27 -25 -32 0 -4 -16 -31 -35 -58 -19 -27 -35 -52 -35 -55 0 -5
-19 -36 -89 -145 -44 -67 -54 -86 -150 -275 -42 -82 -81 -157 -86 -165 -5 -8
-10 -22 -12 -30 -1 -8 -7 -16 -12 -18 -6 -2 -11 -10 -11 -17 0 -7 -3 -15 -8
-17 -4 -1 -22 -22 -40 -45 -19 -24 -39 -43 -46 -43 -9 0 -13 -16 -13 -47 0
-43 1 -46 14 -28 55 80 141 191 174 227 49 53 83 92 134 153 22 27 58 67 80
89 21 23 38 44 37 48 -1 4 7 12 18 18 11 6 18 15 15 19 -2 5 4 11 15 14 11 3
23 13 27 23 3 9 19 29 35 44 15 15 28 30 28 33 0 3 19 26 43 50 23 25 50 56
59 69 9 12 34 41 55 64 21 22 49 55 63 73 14 18 45 53 69 79 23 26 50 58 59
72 9 14 22 29 29 33 7 4 13 12 13 18 0 5 18 27 40 48 22 21 40 42 40 48 0 5
10 19 23 30 12 11 31 33 42 48 11 14 37 45 58 68 20 23 37 48 37 54 0 7 5 13
10 13 6 0 10 5 10 10 0 6 8 19 18 29 31 35 42 50 42 58 0 5 9 14 19 20 11 7
26 23 33 36 7 13 45 70 83 126 39 57 80 119 92 138 12 20 28 40 37 45 9 5 16
15 16 22 0 21 27 40 32 24 3 -7 5 3 6 22 0 19 -3 37 -8 40 -25 16 -31 144 -7
181 8 13 14 39 13 57 -2 17 1 32 7 32 5 0 7 6 4 14 -3 8 -1 16 5 18 14 5 20
96 7 103 -5 4 -12 -2 -16 -12z"/>
<path d="M14171 5514 c0 -11 3 -14 6 -6 3 7 2 16 -1 19 -3 4 -6 -2 -5 -13z"/>
<path d="M13896 4441 c-4 -7 -5 -15 -2 -18 9 -9 19 4 14 18 -4 11 -6 11 -12 0z"/>
<path d="M13895 4400 c-3 -5 -1 -10 4 -10 6 0 11 5 11 10 0 6 -2 10 -4 10 -3
0 -8 -4 -11 -10z"/>
<path d="M13880 4220 c0 -5 5 -10 10 -10 6 0 10 5 10 10 0 6 -4 10 -10 10 -5
0 -10 -4 -10 -10z"/>
<path d="M13888 4110 c-3 -17 -2 -33 1 -36 6 -6 8 -12 10 -43 1 -23 37 -69 46
-59 3 3 -3 25 -14 49 -12 23 -21 60 -21 81 0 45 -16 51 -22 8z"/>
<path d="M2010 4064 c0 -7 205 -273 252 -327 28 -32 42 -40 88 -47 30 -4 64
-11 75 -14 63 -17 140 -34 144 -31 2 2 17 -3 33 -11 16 -8 35 -13 41 -11 7 2
23 -2 37 -9 37 -20 117 -44 145 -44 14 0 25 -4 25 -9 0 -4 21 -16 48 -26 26
-10 56 -23 67 -30 11 -7 39 -16 63 -20 27 -4 42 -12 42 -21 0 -9 4 -12 10 -9
5 3 24 -2 42 -12 18 -9 38 -16 44 -15 6 1 17 -5 24 -13 7 -8 21 -15 33 -15 11
0 34 -9 51 -19 17 -10 47 -22 66 -26 19 -4 55 -16 80 -27 48 -22 210 -65 269
-72 20 -2 68 -9 106 -15 280 -42 281 -42 276 -16 -2 11 -5 96 -7 190 -2 93 -6
175 -8 182 -3 7 -14 13 -25 13 -11 0 -23 4 -26 10 -8 14 -146 77 -187 85 -18
4 -37 10 -43 13 -5 4 -15 7 -21 8 -6 1 -35 13 -66 28 -30 14 -61 26 -69 26 -7
0 -49 17 -94 38 -104 50 -202 89 -248 97 -21 4 -40 11 -42 16 -3 4 -13 5 -21
2 -9 -3 -19 -2 -23 4 -7 10 -124 36 -241 53 -103 15 -285 19 -405 9 -55 -5
-131 -12 -170 -15 -130 -11 -223 -6 -262 13 -53 26 -56 46 -7 38 l39 -6 -24
20 c-16 14 -37 21 -67 21 -24 0 -44 -3 -44 -6z"/>
<path d="M13968 3904 c6 -3 12 -12 12 -19 0 -7 7 -15 14 -18 12 -5 13 -1 7 16
-5 12 -17 23 -27 24 -11 2 -13 0 -6 -3z"/>
<path d="M14032 3819 c2 -7 10 -15 17 -17 8 -3 12 1 9 9 -2 7 -10 15 -17 17
-8 3 -12 -1 -9 -9z"/>
<path d="M14071 3767 c2 -1 13 -9 24 -17 19 -14 19 -14 6 3 -7 9 -18 17 -24
17 -6 0 -8 -1 -6 -3z"/>
<path d="M4033 3633 c9 -9 19 -14 23 -11 10 10 -6 28 -24 28 -15 0 -15 -1 1
-17z"/>
<path d="M16840 3175 c0 -8 5 -15 10 -15 6 0 10 7 10 15 0 8 -4 15 -10 15 -5
0 -10 -7 -10 -15z"/>
<path d="M16840 2926 c0 -25 5 -46 10 -46 6 0 10 18 10 39 0 22 -4 43 -10 46
-6 4 -10 -12 -10 -39z"/>
<path d="M16840 2844 c0 -14 4 -23 10 -19 6 3 10 15 10 26 0 10 -4 19 -10 19
-5 0 -10 -12 -10 -26z"/>
<path d="M16840 2705 c0 -63 4 -105 10 -105 6 0 10 42 10 105 0 63 -4 105 -10
105 -6 0 -10 -42 -10 -105z"/>
<path d="M16840 2559 c0 -5 5 -7 10 -4 6 3 10 8 10 11 0 2 -4 4 -10 4 -5 0
-10 -5 -10 -11z"/>
</g>
</svg>
