<?xml version="1.0" encoding="UTF-8"?>
<!DOCTYPE svg PUBLIC "-//W3C//DTD SVG 1.1//EN" "http://www.w3.org/Graphics/SVG/1.1/DTD/svg11.dtd">
<svg xmlns="http://www.w3.org/2000/svg" version="1.1" width="294px" height="291px"
     style="shape-rendering:geometricPrecision; text-rendering:geometricPrecision; image-rendering:optimizeQuality; fill-rule:evenodd; clip-rule:evenodd">
<g><path style="opacity:0.979" fill="#00bdf1" d="M 126.5,-0.5 C 139.833,-0.5 153.167,-0.5 166.5,-0.5C 175.577,1.0204 184.577,3.35373 193.5,6.5C 194.499,23.4869 194.833,40.4869 194.5,57.5C 162.655,41.7254 130.655,41.5588 98.5,57C 70.8075,73.7279 54.6409,98.2279 50,130.5C 46.6172,158.967 52.9506,184.967 69,208.5C 94.0236,237.18 125.524,248.68 163.5,243C 202.492,236.01 227.659,213.51 239,175.5C 241.091,167.288 242.424,158.955 243,150.5C 243.333,111.833 243.667,73.1667 244,34.5C 286.679,76.5613 301.013,126.895 287,185.5C 273.548,231.95 244.382,264.117 199.5,282C 188.573,285.648 177.573,288.481 166.5,290.5C 152.833,290.5 139.167,290.5 125.5,290.5C 49.3399,275.206 7.33989,228.872 -0.5,151.5C -0.5,146.833 -0.5,142.167 -0.5,137.5C 4.38445,76.5397 34.7178,33.7064 90.5,9C 102.302,4.55123 114.302,1.38456 126.5,-0.5 Z"/></g>
<g><path style="opacity:0.981" fill="#00bdf1" d="M 136.5,94.5 C 158.721,91.2806 175.888,98.9473 188,117.5C 196.665,135.845 196.665,154.179 188,172.5C 175.577,191.431 158.077,198.931 135.5,195C 116.442,190.276 104.276,178.443 99,159.5C 93.5294,134.558 101.029,114.725 121.5,100C 126.434,97.6369 131.434,95.8035 136.5,94.5 Z"/></g>
</svg>
