<?xml version="1.0" standalone="no"?>
<!DOCTYPE svg PUBLIC "-//W3C//DTD SVG 20010904//EN"
 "http://www.w3.org/TR/2001/REC-SVG-20010904/DTD/svg10.dtd">
<svg version="1.0" xmlns="http://www.w3.org/2000/svg"
 width="240.000000pt" height="240.000000pt" viewBox="0 0 240.000000 240.000000"
 preserveAspectRatio="xMidYMid meet">

<g transform="translate(0.000000,240.000000) scale(0.100000,-0.100000)"
fill="#000000" stroke="none">
<path d="M1085 2140 c-389 -45 -727 -349 -811 -732 -25 -111 -22 -320 5 -431
83 -344 371 -628 713 -703 111 -25 320 -22 431 5 344 83 628 371 703 713 22
101 22 309 -1 413 -63 295 -283 555 -571 675 -129 53 -317 78 -469 60z m613
-537 c18 -11 22 -22 21 -56 0 -23 0 -67 -1 -97 0 -30 -1 -109 -2 -175 -1 -66
1 -138 5 -160 5 -22 13 -72 19 -111 11 -68 13 -72 50 -93 21 -11 47 -21 58
-21 49 0 45 -61 -5 -82 -44 -17 -142 -10 -181 13 l-34 20 -67 -27 c-104 -42
-167 -29 -237 48 -57 64 -78 120 -78 213 0 101 23 169 76 230 78 89 146 103
256 54 53 -23 54 -23 68 -4 8 11 11 26 7 35 -4 8 -8 40 -11 70 -4 61 -12 74
-45 75 -71 4 -85 6 -102 19 -16 12 -18 18 -7 40 11 25 14 25 99 24 55 -1 96
-6 111 -15z m-984 -212 l29 -12 -7 -72 c-13 -132 -14 -221 -3 -296 l12 -74 40
-14 c45 -16 99 -7 166 27 44 23 53 47 70 185 6 50 15 107 20 128 15 57 -6 77
-83 77 -52 0 -58 2 -58 21 0 13 11 25 35 35 30 12 40 12 68 0 23 -9 39 -10 51
-4 46 26 82 -25 67 -95 -17 -85 6 -366 29 -352 12 7 130 -65 130 -79 -1 -42
-13 -55 -65 -67 -62 -14 -119 -7 -195 25 l-55 22 -79 -28 c-69 -25 -83 -27
-115 -17 -20 6 -46 20 -58 31 -12 11 -26 17 -32 14 -24 -15 -30 37 -26 229 2
109 -1 209 -6 222 -8 22 -13 24 -44 19 -30 -6 -39 -3 -66 25 -29 30 -30 32
-12 51 16 18 27 20 88 15 39 -2 83 -10 99 -16z"/>
<path d="M1421 1280 c-69 -51 -79 -71 -79 -161 0 -78 2 -82 38 -127 67 -85 81
-94 121 -80 42 15 87 62 117 122 19 41 21 53 12 86 -6 22 -10 55 -8 74 2 34
-15 66 -35 66 -6 0 -19 7 -28 16 -10 9 -37 20 -59 24 -35 6 -46 4 -79 -20z"/>
</g>
</svg>
