<?xml version="1.0" standalone="no"?>
<!DOCTYPE svg PUBLIC "-//W3C//DTD SVG 20010904//EN"
 "http://www.w3.org/TR/2001/REC-SVG-20010904/DTD/svg10.dtd">
<svg version="1.0" xmlns="http://www.w3.org/2000/svg"
 width="772.000000pt" height="148.000000pt" viewBox="0 0 772.000000 148.000000"
 preserveAspectRatio="xMidYMid meet">

<g transform="translate(0.000000,148.000000) scale(0.100000,-0.100000)"
fill="#000000" stroke="none">
<path d="M3725 1325 c-170 -98 -256 -153 -268 -172 -16 -25 -17 -56 -15 -330
l3 -303 25 -24 c14 -13 204 -128 423 -254 l397 -230 0 163 0 163 113 63 c61
35 127 77 145 95 l32 32 0 300 0 300 -26 31 c-37 44 -508 311 -548 311 -21 -1
-112 -47 -281 -145z m177 -213 c11 -11 23 -35 27 -53 6 -31 18 -40 120 -98
100 -56 116 -62 137 -52 53 24 105 5 129 -46 22 -45 6 -97 -39 -124 -56 -35
-129 -1 -142 66 -5 28 -18 39 -113 93 -104 59 -108 61 -163 55 -54 -5 -59 -4
-87 25 -43 42 -43 92 -1 134 27 27 36 30 72 25 22 -3 50 -14 60 -25z m183
-378 c9 -14 15 -27 13 -29 -2 -1 -39 -23 -83 -47 -69 -40 -81 -50 -87 -79 -15
-77 -104 -105 -159 -50 -76 76 16 202 111 151 14 -8 35 0 97 35 43 24 81 45
84 45 4 0 14 -12 24 -26z"/>
<path d="M4913 1139 c-10 -10 -13 -88 -13 -321 0 -357 -10 -328 117 -328 111
1 217 16 261 39 63 32 118 100 141 176 55 177 -1 347 -135 415 -44 22 -64 25
-204 28 -118 3 -158 1 -167 -9z m331 -129 c98 -60 108 -261 17 -351 -42 -42
-91 -59 -173 -59 l-58 0 0 221 0 221 88 -4 c70 -3 96 -9 126 -28z"/>
<path d="M7373 1144 c-10 -4 -13 -79 -13 -325 l0 -319 170 0 170 0 0 50 0 50
-110 0 -110 0 -2 273 -3 272 -45 2 c-25 1 -51 0 -57 -3z"/>
<path d="M5720 1001 c-75 -24 -138 -81 -168 -150 -20 -49 -20 -156 2 -206 46
-108 176 -171 299 -145 58 12 126 50 145 81 11 17 7 22 -33 41 l-45 22 -43
-22 c-75 -37 -163 -24 -201 30 -33 46 -28 47 182 50 l197 3 -3 40 c-8 105 -64
195 -146 237 -44 22 -145 33 -186 19z m155 -115 c24 -16 61 -74 52 -82 -2 -3
-66 -3 -141 -2 l-137 3 23 34 c46 68 138 89 203 47z"/>
<path d="M6321 999 c-135 -40 -211 -187 -170 -333 15 -53 89 -131 147 -153 57
-22 162 -22 212 -1 43 18 100 65 100 83 0 7 -20 20 -45 29 -44 17 -46 17 -88
-3 -77 -37 -171 -20 -201 37 -8 16 -12 32 -9 36 4 3 94 6 201 6 l195 0 -7 58
c-8 74 -47 153 -94 192 -63 52 -161 71 -241 49z m133 -103 c34 -14 76 -59 76
-82 0 -11 -28 -14 -135 -14 -74 0 -135 3 -135 6 0 21 41 67 75 84 47 24 74 25
119 6z"/>
<path d="M6952 995 c-18 -8 -47 -24 -63 -36 l-30 -21 -23 21 c-14 14 -35 21
-59 21 l-37 0 2 -332 3 -333 55 0 55 0 3 122 3 121 65 -34 c79 -41 128 -44
200 -10 128 59 179 226 113 363 -51 106 -186 162 -287 118z m125 -115 c44 -26
63 -59 69 -116 9 -84 -55 -164 -130 -164 -41 0 -95 28 -120 63 -27 37 -29 131
-3 171 25 37 75 66 117 66 19 0 49 -9 67 -20z"/>
<path d="M1297 993 c-4 -3 -7 -98 -7 -210 l0 -203 30 0 30 0 0 210 0 210 -23
0 c-13 0 -27 -3 -30 -7z"/>
<path d="M2370 936 l0 -65 -53 6 c-103 11 -147 -50 -139 -193 1 -18 15 -45 35
-68 34 -40 28 -38 160 -36 l57 1 0 209 0 210 -30 0 -30 0 0 -64z m-10 -135
c16 -30 12 -123 -6 -149 -22 -32 -83 -28 -102 8 -16 30 -11 122 7 144 20 24
88 21 101 -3z"/>
<path d="M2627 993 c-4 -3 -7 -95 -7 -204 0 -188 1 -199 20 -209 14 -8 26 -8
40 0 14 7 26 8 39 0 47 -25 127 6 150 58 32 70 19 165 -29 214 -22 22 -38 28
-70 28 -23 0 -50 -5 -61 -10 -18 -10 -19 -7 -19 60 l0 70 -28 0 c-16 0 -32 -3
-35 -7z m177 -195 c19 -26 21 -96 4 -133 -14 -32 -53 -43 -87 -24 -23 13 -26
22 -29 78 -2 49 1 68 14 82 24 27 79 25 98 -3z"/>
<path d="M76 938 c-3 -7 -6 -22 -8 -33 -2 -11 -12 -21 -23 -23 -29 -6 -38 -17
-30 -41 4 -14 15 -21 31 -21 24 0 24 -1 24 -95 0 -52 5 -105 11 -119 13 -28
60 -41 90 -25 25 13 20 30 -14 47 -26 13 -27 15 -27 103 0 79 2 89 18 89 45 0
56 48 13 56 -25 5 -30 12 -33 38 -2 23 -8 32 -26 34 -12 2 -24 -3 -26 -10z"/>
<path d="M1737 944 c-4 -4 -7 -20 -7 -35 0 -21 -5 -28 -22 -31 -17 -2 -23 -10
-23 -28 0 -18 6 -26 23 -28 21 -3 22 -8 22 -92 0 -49 4 -100 10 -115 18 -48
115 -58 108 -11 -2 11 -12 22 -23 25 -30 5 -35 19 -35 109 0 74 2 82 19 82 24
0 45 25 37 45 -3 8 -16 15 -30 15 -21 0 -25 5 -28 33 -2 23 -8 33 -23 35 -12
2 -24 0 -28 -4z"/>
<path d="M315 876 c-21 -9 -35 -10 -46 -3 -9 6 -24 7 -33 4 -14 -6 -16 -27
-16 -152 l0 -145 30 0 30 0 0 103 c0 113 8 132 60 139 18 2 26 10 28 29 4 33
-14 41 -53 25z"/>
<path d="M794 874 c-27 -9 -41 -10 -54 -2 -10 6 -25 8 -34 5 -14 -6 -16 -27
-16 -152 l0 -146 33 3 32 3 3 104 c1 58 8 111 14 118 13 16 70 17 86 1 8 -8
12 -49 12 -121 l0 -108 33 3 32 3 3 87 c6 171 -41 237 -144 202z"/>
<path d="M1067 875 c-62 -22 -87 -66 -63 -113 14 -27 49 -47 121 -68 23 -7 30
-15 30 -34 0 -22 -5 -25 -42 -28 -36 -3 -44 1 -59 22 -10 16 -26 26 -40 26
-35 0 -31 -39 7 -76 27 -25 37 -29 90 -28 48 1 64 5 84 24 67 63 32 126 -87
161 -34 9 -48 19 -48 31 0 22 13 29 52 30 22 1 36 -5 46 -20 15 -23 46 -29 57
-11 12 18 -16 67 -43 77 -51 20 -67 21 -105 7z"/>
<path d="M1483 874 c-47 -16 -87 -62 -71 -81 15 -18 34 -16 55 5 39 40 98 38
106 -4 4 -20 0 -24 -22 -24 -47 0 -103 -21 -127 -47 -66 -71 15 -172 113 -144
18 5 51 7 74 4 41 -6 42 -5 36 18 -4 13 -7 68 -7 122 0 97 -1 100 -30 127 -36
33 -77 41 -127 24z m95 -181 c5 -33 -33 -65 -71 -61 -28 3 -32 7 -35 35 -3 28
0 33 25 39 15 3 33 7 38 9 22 8 40 -1 43 -22z"/>
<path d="M1983 878 c-94 -24 -132 -178 -64 -258 44 -53 151 -62 196 -17 33 33
0 73 -35 42 -20 -18 -79 -19 -101 -2 -9 7 -19 22 -23 34 -7 22 -5 22 86 25 89
3 93 4 96 27 7 43 -8 90 -38 119 -32 33 -70 42 -117 30z m79 -72 c4 -6 8 -19
8 -28 0 -15 -9 -18 -56 -18 -52 0 -55 2 -52 22 5 40 78 57 100 24z"/>
<path d="M443 858 c-38 -27 -47 -46 -32 -64 16 -20 27 -18 62 12 31 26 73 27
89 1 16 -25 6 -33 -54 -44 -86 -17 -113 -46 -109 -120 3 -52 75 -82 141 -59
22 8 40 9 40 4 0 -5 14 -8 32 -6 l31 3 -2 90 c-2 104 -8 144 -24 166 -33 45
-122 53 -174 17z m125 -166 c5 -34 -25 -62 -64 -62 -27 0 -35 5 -40 24 -8 32
0 44 39 55 46 13 62 9 65 -17z"/>
<path d="M2908 875 c-7 -8 3 -54 13 -61 5 -3 9 -12 9 -21 0 -8 6 -29 14 -46
33 -73 56 -159 50 -183 -4 -17 -19 -31 -40 -40 -40 -17 -49 -30 -34 -49 35
-42 104 5 134 90 75 209 104 300 100 307 -3 4 -16 8 -30 8 -28 0 -33 -9 -65
-119 -24 -82 -27 -81 -60 24 -12 38 -27 76 -32 83 -9 12 -49 17 -59 7z"/>
</g>
</svg>
